<svg width="414" height="896" viewBox="0 0 414 896" fill="none" xmlns="http://www.w3.org/2000/svg">
<g clip-path="url(#clip0)">
<rect width="414" height="896" fill="white"/>
<path d="M414 0H0V896H414V0Z" fill="#DFD1A7"/>
<path d="M414 0H0V896H414V0Z" fill="url(#paint0_linear)"/>
<g filter="url(#filter0_bd)">
<path fill-rule="evenodd" clip-rule="evenodd" d="M0 0H414V88H0V0Z" fill="#F9F9F9" fill-opacity="0.94"/>
</g>
<path fill-rule="evenodd" clip-rule="evenodd" d="M18.0371 75.5827L8.79215 66.4458C8.40262 66.0612 8.40262 65.4398 8.79215 65.0542L18.0371 55.9173C18.5995 55.3609 19.5144 55.3609 20.0777 55.9173C20.64 56.4738 20.64 57.3769 20.0777 57.9333L12.1691 65.7505L20.0777 73.5657C20.64 74.1231 20.64 75.0262 20.0777 75.5827C19.5144 76.1391 18.5995 76.1391 18.0371 75.5827Z" fill="#007AFF"/>
<path d="M34.7822 63.0928L33.2134 64.0225C32.9201 63.5133 32.6406 63.1813 32.375 63.0264C32.0983 62.8493 31.7414 62.7607 31.3042 62.7607C30.7674 62.7607 30.3219 62.9129 29.9678 63.2173C29.6136 63.5161 29.4365 63.8924 29.4365 64.3462C29.4365 64.9715 29.9014 65.4751 30.8311 65.8569L32.1094 66.3799C33.1497 66.8005 33.9106 67.3151 34.3921 67.9238C34.8735 68.527 35.1143 69.2686 35.1143 70.1484C35.1143 71.3271 34.7214 72.3011 33.9355 73.0703C33.1442 73.8451 32.1619 74.2324 30.9888 74.2324C29.8765 74.2324 28.9578 73.9032 28.2329 73.2446C27.519 72.5861 27.0736 71.6592 26.8965 70.4639L28.8555 70.0322C28.944 70.7848 29.099 71.305 29.3203 71.5928C29.7188 72.1462 30.2998 72.4229 31.0635 72.4229C31.6667 72.4229 32.1675 72.2209 32.5659 71.8169C32.9644 71.4129 33.1636 70.901 33.1636 70.2812C33.1636 70.0322 33.1276 69.8053 33.0557 69.6006C32.9893 69.3903 32.8813 69.1994 32.7319 69.0278C32.5881 68.8507 32.3999 68.6875 32.1675 68.5381C31.9351 68.3831 31.6584 68.2365 31.3374 68.0981L30.1006 67.5835C28.3464 66.842 27.4692 65.7573 27.4692 64.3296C27.4692 63.3667 27.8372 62.5615 28.5732 61.9141C29.3092 61.2611 30.2251 60.9346 31.3208 60.9346C32.7983 60.9346 33.9521 61.654 34.7822 63.0928ZM38.5495 65.915V74H36.6818V65.915H38.5495ZM36.3996 62.5532C36.3996 62.2267 36.5186 61.9445 36.7566 61.7065C36.9945 61.4686 37.2795 61.3496 37.6115 61.3496C37.9491 61.3496 38.2369 61.4686 38.4748 61.7065C38.7128 61.939 38.8317 62.224 38.8317 62.5615C38.8317 62.8991 38.7128 63.1868 38.4748 63.4248C38.2424 63.6628 37.9574 63.7817 37.6198 63.7817C37.2823 63.7817 36.9945 63.6628 36.7566 63.4248C36.5186 63.1868 36.3996 62.8963 36.3996 62.5532ZM48.3266 73.8091C48.3266 74.1909 48.3127 74.5257 48.2851 74.8135C48.2629 75.1068 48.2297 75.3641 48.1855 75.5854C48.0527 76.1942 47.7926 76.7171 47.4052 77.1543C46.6747 77.9954 45.6703 78.416 44.392 78.416C43.3129 78.416 42.4247 78.1255 41.7275 77.5444C41.0081 76.9468 40.593 76.1195 40.4823 75.0625H42.3583C42.4303 75.4609 42.5492 75.7681 42.7153 75.9839C43.1026 76.4875 43.6671 76.7393 44.4086 76.7393C45.7755 76.7393 46.4589 75.9009 46.4589 74.2241V73.0952C45.7174 73.8534 44.8624 74.2324 43.894 74.2324C42.7927 74.2324 41.8907 73.834 41.1879 73.0371C40.4796 72.2292 40.1254 71.2192 40.1254 70.0073C40.1254 68.8286 40.4547 67.827 41.1132 67.0024C41.8215 66.1281 42.7568 65.6909 43.9189 65.6909C44.9371 65.6909 45.7838 66.07 46.4589 66.8281V65.915H48.3266V73.8091ZM46.5336 69.9741C46.5336 69.1883 46.3233 68.5602 45.9028 68.0898C45.4766 67.6084 44.9316 67.3677 44.2675 67.3677C43.5592 67.3677 43.0002 67.6305 42.5907 68.1562C42.22 68.6266 42.0346 69.2354 42.0346 69.9824C42.0346 70.7184 42.22 71.3216 42.5907 71.792C42.9947 72.3066 43.5536 72.564 44.2675 72.564C44.9814 72.564 45.5458 72.3039 45.9609 71.7837C46.3427 71.3133 46.5336 70.7101 46.5336 69.9741ZM50.276 65.915H52.152V66.6621C52.805 66.0146 53.541 65.6909 54.36 65.6909C55.3007 65.6909 56.034 65.987 56.5597 66.5791C57.0135 67.0827 57.2404 67.9045 57.2404 69.0444V74H55.3644V69.4844C55.3644 68.6875 55.2537 68.1369 55.0323 67.8325C54.8165 67.5226 54.4236 67.3677 53.8536 67.3677C53.2338 67.3677 52.7939 67.5724 52.5338 67.9819C52.2793 68.3859 52.152 69.0915 52.152 70.0986V74H50.276V65.915ZM66.3272 61.1836V74H64.3931V61.1836H66.3272ZM68.6418 65.915H70.5178V66.6621C71.1708 66.0146 71.9068 65.6909 72.7258 65.6909C73.6666 65.6909 74.3998 65.987 74.9255 66.5791C75.3793 67.0827 75.6062 67.9045 75.6062 69.0444V74H73.7302V69.4844C73.7302 68.6875 73.6195 68.1369 73.3982 67.8325C73.1824 67.5226 72.7895 67.3677 72.2195 67.3677C71.5997 67.3677 71.1597 67.5724 70.8997 67.9819C70.6451 68.3859 70.5178 69.0915 70.5178 70.0986V74H68.6418V65.915Z" fill="#007AFF"/>
<path d="M156.7 68.7954V74H154.766V61.1836H156.957C158.031 61.1836 158.841 61.2583 159.389 61.4077C159.943 61.5571 160.43 61.8394 160.85 62.2544C161.586 62.9738 161.954 63.8813 161.954 64.9771C161.954 66.1502 161.561 67.0799 160.775 67.7661C159.99 68.4523 158.93 68.7954 157.596 68.7954H156.7ZM156.7 67.0024H157.422C159.198 67.0024 160.086 66.319 160.086 64.9521C160.086 63.6296 159.171 62.9683 157.339 62.9683H156.7V67.0024ZM168.677 65.915H170.552V74H168.677V73.1533C167.907 73.8727 167.08 74.2324 166.195 74.2324C165.077 74.2324 164.153 73.8285 163.422 73.0205C162.697 72.196 162.335 71.1667 162.335 69.9326C162.335 68.7207 162.697 67.7108 163.422 66.9028C164.147 66.0949 165.055 65.6909 166.145 65.6909C167.086 65.6909 167.929 66.0783 168.677 66.853V65.915ZM164.244 69.9326C164.244 70.7074 164.451 71.3382 164.866 71.8252C165.293 72.3177 165.829 72.564 166.477 72.564C167.169 72.564 167.727 72.326 168.154 71.8501C168.58 71.3576 168.793 70.7323 168.793 69.9741C168.793 69.216 168.58 68.5907 168.154 68.0981C167.727 67.6167 167.174 67.376 166.493 67.376C165.851 67.376 165.315 67.6195 164.883 68.1064C164.457 68.599 164.244 69.2077 164.244 69.9326ZM177.2 67.293L175.656 68.1147C175.413 67.6167 175.111 67.3677 174.751 67.3677C174.58 67.3677 174.433 67.4258 174.311 67.542C174.19 67.6527 174.129 67.7965 174.129 67.9736C174.129 68.2835 174.489 68.5907 175.208 68.895C176.199 69.3211 176.865 69.714 177.208 70.0737C177.552 70.4334 177.723 70.9176 177.723 71.5264C177.723 72.3066 177.435 72.9596 176.86 73.4854C176.301 73.9834 175.626 74.2324 174.834 74.2324C173.479 74.2324 172.519 73.5711 171.954 72.2485L173.548 71.5098C173.769 71.8971 173.938 72.1434 174.054 72.2485C174.281 72.4588 174.552 72.564 174.868 72.564C175.498 72.564 175.814 72.2762 175.814 71.7007C175.814 71.3687 175.57 71.0588 175.083 70.771C174.895 70.6769 174.707 70.5856 174.519 70.4971C174.331 70.4085 174.14 70.3172 173.946 70.2231C173.404 69.9575 173.022 69.6919 172.801 69.4263C172.519 69.0887 172.377 68.6543 172.377 68.123C172.377 67.4202 172.618 66.8392 173.1 66.3799C173.592 65.9206 174.19 65.6909 174.893 65.6909C175.927 65.6909 176.697 66.2249 177.2 67.293ZM183.698 67.293L182.154 68.1147C181.911 67.6167 181.609 67.3677 181.25 67.3677C181.078 67.3677 180.931 67.4258 180.81 67.542C180.688 67.6527 180.627 67.7965 180.627 67.9736C180.627 68.2835 180.987 68.5907 181.706 68.895C182.697 69.3211 183.364 69.714 183.707 70.0737C184.05 70.4334 184.221 70.9176 184.221 71.5264C184.221 72.3066 183.934 72.9596 183.358 73.4854C182.799 73.9834 182.124 74.2324 181.333 74.2324C179.977 74.2324 179.017 73.5711 178.452 72.2485L180.046 71.5098C180.267 71.8971 180.436 72.1434 180.552 72.2485C180.779 72.4588 181.05 72.564 181.366 72.564C181.997 72.564 182.312 72.2762 182.312 71.7007C182.312 71.3687 182.069 71.0588 181.582 70.771C181.394 70.6769 181.205 70.5856 181.017 70.4971C180.829 70.4085 180.638 70.3172 180.445 70.2231C179.902 69.9575 179.52 69.6919 179.299 69.4263C179.017 69.0887 178.876 68.6543 178.876 68.123C178.876 67.4202 179.116 66.8392 179.598 66.3799C180.09 65.9206 180.688 65.6909 181.391 65.6909C182.426 65.6909 183.195 66.2249 183.698 67.293ZM186.511 65.915L188.628 70.5303L190.911 65.1763L193.21 70.5303L195.302 65.915H197.393L193.16 74.606L190.911 69.4014L188.636 74.606L184.411 65.915H186.511ZM197.558 69.8994C197.558 68.7318 197.976 67.7384 198.812 66.9194C199.647 66.1004 200.665 65.6909 201.866 65.6909C203.073 65.6909 204.096 66.1032 204.938 66.9277C205.768 67.7523 206.183 68.765 206.183 69.9658C206.183 71.1777 205.765 72.1932 204.929 73.0122C204.088 73.8257 203.056 74.2324 201.833 74.2324C200.621 74.2324 199.606 73.8174 198.787 72.9873C197.968 72.1683 197.558 71.139 197.558 69.8994ZM199.467 69.9326C199.467 70.7406 199.683 71.3797 200.115 71.8501C200.558 72.326 201.141 72.564 201.866 72.564C202.597 72.564 203.181 72.3288 203.618 71.8584C204.055 71.388 204.274 70.7599 204.274 69.9741C204.274 69.1883 204.055 68.5602 203.618 68.0898C203.175 67.6139 202.591 67.376 201.866 67.376C201.152 67.376 200.574 67.6139 200.131 68.0898C199.689 68.5658 199.467 69.18 199.467 69.9326ZM207.759 65.915H209.626V66.6372C209.969 66.2775 210.274 66.0312 210.539 65.8984C210.811 65.7601 211.131 65.6909 211.502 65.6909C211.995 65.6909 212.509 65.8514 213.046 66.1724L212.191 67.8823C211.837 67.6278 211.491 67.5005 211.154 67.5005C210.135 67.5005 209.626 68.2697 209.626 69.8081V74H207.759V65.915ZM219.553 59.98H221.429V74H219.553V73.1533C218.817 73.8727 217.984 74.2324 217.054 74.2324C215.947 74.2324 215.029 73.8285 214.298 73.0205C213.573 72.196 213.211 71.1667 213.211 69.9326C213.211 68.7262 213.573 67.7191 214.298 66.9111C215.018 66.0977 215.923 65.6909 217.013 65.6909C217.959 65.6909 218.806 66.0783 219.553 66.853V59.98ZM215.12 69.9326C215.12 70.7074 215.328 71.3382 215.743 71.8252C216.169 72.3177 216.706 72.564 217.353 72.564C218.045 72.564 218.604 72.326 219.03 71.8501C219.456 71.3576 219.669 70.7323 219.669 69.9741C219.669 69.216 219.456 68.5907 219.03 68.0981C218.604 67.6167 218.05 67.376 217.37 67.376C216.728 67.376 216.191 67.6195 215.759 68.1064C215.333 68.599 215.12 69.2077 215.12 69.9326ZM228.216 65.915H230.084V66.6372C230.427 66.2775 230.731 66.0312 230.997 65.8984C231.268 65.7601 231.589 65.6909 231.96 65.6909C232.452 65.6909 232.967 65.8514 233.504 66.1724L232.649 67.8823C232.295 67.6278 231.949 67.5005 231.611 67.5005C230.593 67.5005 230.084 68.2697 230.084 69.8081V74H228.216V65.915ZM241.413 70.3975H235.619C235.669 71.0615 235.885 71.59 236.267 71.9829C236.649 72.3703 237.138 72.564 237.736 72.564C238.201 72.564 238.585 72.4533 238.89 72.2319C239.189 72.0106 239.529 71.6011 239.911 71.0034L241.488 71.8833C241.244 72.2983 240.987 72.6553 240.716 72.9541C240.445 73.2474 240.154 73.4909 239.844 73.6846C239.534 73.8727 239.2 74.0111 238.84 74.0996C238.48 74.1882 238.09 74.2324 237.67 74.2324C236.463 74.2324 235.495 73.8451 234.764 73.0703C234.034 72.29 233.669 71.2552 233.669 69.9658C233.669 68.6875 234.023 67.6527 234.731 66.8613C235.445 66.0811 236.391 65.6909 237.57 65.6909C238.76 65.6909 239.7 66.07 240.392 66.8281C241.078 67.5807 241.422 68.6239 241.422 69.9575L241.413 70.3975ZM239.496 68.8701C239.236 67.874 238.608 67.376 237.611 67.376C237.385 67.376 237.172 67.4119 236.972 67.4839C236.773 67.5503 236.59 67.6499 236.424 67.7827C236.264 67.91 236.126 68.0649 236.009 68.2476C235.893 68.4302 235.805 68.6377 235.744 68.8701H239.496ZM247.754 67.293L246.21 68.1147C245.966 67.6167 245.665 67.3677 245.305 67.3677C245.133 67.3677 244.987 67.4258 244.865 67.542C244.743 67.6527 244.682 67.7965 244.682 67.9736C244.682 68.2835 245.042 68.5907 245.762 68.895C246.752 69.3211 247.419 69.714 247.762 70.0737C248.105 70.4334 248.277 70.9176 248.277 71.5264C248.277 72.3066 247.989 72.9596 247.413 73.4854C246.854 73.9834 246.179 74.2324 245.388 74.2324C244.032 74.2324 243.072 73.5711 242.508 72.2485L244.101 71.5098C244.323 71.8971 244.492 72.1434 244.608 72.2485C244.835 72.4588 245.106 72.564 245.421 72.564C246.052 72.564 246.368 72.2762 246.368 71.7007C246.368 71.3687 246.124 71.0588 245.637 70.771C245.449 70.6769 245.261 70.5856 245.073 70.4971C244.884 70.4085 244.694 70.3172 244.5 70.2231C243.958 69.9575 243.576 69.6919 243.354 69.4263C243.072 69.0887 242.931 68.6543 242.931 68.123C242.931 67.4202 243.172 66.8392 243.653 66.3799C244.146 65.9206 244.743 65.6909 245.446 65.6909C246.481 65.6909 247.25 66.2249 247.754 67.293ZM256.917 70.3975H251.123C251.172 71.0615 251.388 71.59 251.77 71.9829C252.152 72.3703 252.642 72.564 253.239 72.564C253.704 72.564 254.089 72.4533 254.393 72.2319C254.692 72.0106 255.032 71.6011 255.414 71.0034L256.991 71.8833C256.748 72.2983 256.49 72.6553 256.219 72.9541C255.948 73.2474 255.658 73.4909 255.348 73.6846C255.038 73.8727 254.703 74.0111 254.343 74.0996C253.984 74.1882 253.593 74.2324 253.173 74.2324C251.967 74.2324 250.998 73.8451 250.268 73.0703C249.537 72.29 249.172 71.2552 249.172 69.9658C249.172 68.6875 249.526 67.6527 250.234 66.8613C250.948 66.0811 251.895 65.6909 253.073 65.6909C254.263 65.6909 255.204 66.07 255.896 66.8281C256.582 67.5807 256.925 68.6239 256.925 69.9575L256.917 70.3975ZM254.999 68.8701C254.739 67.874 254.111 67.376 253.115 67.376C252.888 67.376 252.675 67.4119 252.476 67.4839C252.276 67.5503 252.094 67.6499 251.928 67.7827C251.767 67.91 251.629 68.0649 251.513 68.2476C251.397 68.4302 251.308 68.6377 251.247 68.8701H254.999ZM260.634 67.6582V74H258.766V67.6582H257.969V65.915H258.766V62.9517H260.634V65.915H262.087V67.6582H260.634Z" fill="black"/>
<rect x="140" y="860" width="134" height="5" rx="2.5" fill="black"/>
<path d="M82.3683 165.003H73.4367V171.162H82.0529V174.798H73.4367V187H69.5685V161.367H82.3683V165.003ZM85.465 178.799C85.465 176.464 86.3006 174.477 87.9718 172.839C89.6431 171.201 91.6795 170.382 94.0812 170.382C96.494 170.382 98.5415 171.206 100.224 172.855C101.884 174.505 102.714 176.53 102.714 178.932C102.714 181.355 101.878 183.386 100.207 185.024C98.5249 186.651 96.4608 187.465 94.0148 187.465C91.591 187.465 89.5601 186.635 87.922 184.975C86.284 183.337 85.465 181.278 85.465 178.799ZM89.2834 178.865C89.2834 180.481 89.715 181.759 90.5783 182.7C91.4637 183.652 92.6313 184.128 94.0812 184.128C95.5422 184.128 96.7098 183.658 97.5841 182.717C98.4585 181.776 98.8957 180.52 98.8957 178.948C98.8957 177.377 98.4585 176.12 97.5841 175.18C96.6987 174.228 95.5311 173.752 94.0812 173.752C92.6535 173.752 91.4969 174.228 90.6115 175.18C89.7261 176.132 89.2834 177.36 89.2834 178.865ZM107.056 170.83H110.791V172.274C111.477 171.555 112.086 171.062 112.617 170.797C113.16 170.52 113.802 170.382 114.543 170.382C115.528 170.382 116.557 170.703 117.631 171.345L115.921 174.765C115.213 174.256 114.521 174.001 113.846 174.001C111.809 174.001 110.791 175.539 110.791 178.616V187H107.056V170.83ZM135.785 186.618C135.785 187.382 135.758 188.051 135.702 188.627C135.658 189.214 135.592 189.728 135.503 190.171C135.237 191.388 134.717 192.434 133.942 193.309C132.482 194.991 130.473 195.832 127.916 195.832C125.758 195.832 123.982 195.251 122.587 194.089C121.148 192.894 120.318 191.239 120.097 189.125H123.849C123.993 189.922 124.231 190.536 124.563 190.968C125.337 191.975 126.466 192.479 127.949 192.479C130.683 192.479 132.05 190.802 132.05 187.448V185.19C130.567 186.707 128.857 187.465 126.92 187.465C124.718 187.465 122.914 186.668 121.508 185.074C120.091 183.458 119.383 181.438 119.383 179.015C119.383 176.657 120.041 174.654 121.359 173.005C122.775 171.256 124.646 170.382 126.97 170.382C129.006 170.382 130.7 171.14 132.05 172.656V170.83H135.785V186.618ZM132.199 178.948C132.199 177.377 131.779 176.12 130.938 175.18C130.085 174.217 128.995 173.735 127.667 173.735C126.25 173.735 125.133 174.261 124.314 175.312C123.572 176.253 123.201 177.471 123.201 178.965C123.201 180.437 123.572 181.643 124.314 182.584C125.122 183.613 126.239 184.128 127.667 184.128C129.095 184.128 130.224 183.608 131.054 182.567C131.817 181.627 132.199 180.42 132.199 178.948ZM140.11 178.799C140.11 176.464 140.946 174.477 142.617 172.839C144.289 171.201 146.325 170.382 148.727 170.382C151.139 170.382 153.187 171.206 154.869 172.855C156.529 174.505 157.359 176.53 157.359 178.932C157.359 181.355 156.524 183.386 154.853 185.024C153.17 186.651 151.106 187.465 148.66 187.465C146.236 187.465 144.205 186.635 142.567 184.975C140.929 183.337 140.11 181.278 140.11 178.799ZM143.929 178.865C143.929 180.481 144.36 181.759 145.224 182.7C146.109 183.652 147.277 184.128 148.727 184.128C150.188 184.128 151.355 183.658 152.23 182.717C153.104 181.776 153.541 180.52 153.541 178.948C153.541 177.377 153.104 176.12 152.23 175.18C151.344 174.228 150.177 173.752 148.727 173.752C147.299 173.752 146.142 174.228 145.257 175.18C144.372 176.132 143.929 177.36 143.929 178.865ZM165.752 174.316V187H162.017V174.316H160.423V170.83H162.017V164.903H165.752V170.83H168.657V174.316H165.752ZM186.173 195.799H182.438V170.83H186.173V172.59C187.645 171.118 189.316 170.382 191.187 170.382C193.411 170.382 195.243 171.201 196.682 172.839C198.143 174.466 198.873 176.519 198.873 178.998C198.873 181.422 198.148 183.442 196.698 185.058C195.259 186.662 193.444 187.465 191.253 187.465C189.36 187.465 187.667 186.707 186.173 185.19V195.799ZM195.055 179.015C195.055 177.465 194.634 176.203 193.793 175.229C192.941 174.244 191.867 173.752 190.572 173.752C189.2 173.752 188.088 174.228 187.235 175.18C186.383 176.132 185.957 177.382 185.957 178.932C185.957 180.448 186.383 181.699 187.235 182.684C188.077 183.646 189.183 184.128 190.556 184.128C191.851 184.128 192.919 183.641 193.76 182.667C194.623 181.693 195.055 180.476 195.055 179.015ZM215.118 170.83H218.87V187H215.118V185.307C213.58 186.745 211.925 187.465 210.154 187.465C207.919 187.465 206.07 186.657 204.609 185.041C203.16 183.392 202.435 181.333 202.435 178.865C202.435 176.441 203.16 174.422 204.609 172.806C206.059 171.19 207.874 170.382 210.055 170.382C211.936 170.382 213.624 171.157 215.118 172.706V170.83ZM206.253 178.865C206.253 180.415 206.668 181.676 207.498 182.65C208.35 183.635 209.424 184.128 210.719 184.128C212.102 184.128 213.22 183.652 214.072 182.7C214.924 181.715 215.351 180.465 215.351 178.948C215.351 177.432 214.924 176.181 214.072 175.196C213.22 174.233 212.113 173.752 210.752 173.752C209.468 173.752 208.395 174.239 207.531 175.213C206.679 176.198 206.253 177.415 206.253 178.865ZM233.355 173.586L230.268 175.229C229.781 174.233 229.177 173.735 228.458 173.735C228.115 173.735 227.822 173.852 227.578 174.084C227.335 174.305 227.213 174.593 227.213 174.947C227.213 175.567 227.932 176.181 229.371 176.79C231.352 177.642 232.686 178.428 233.372 179.147C234.058 179.867 234.401 180.835 234.401 182.053C234.401 183.613 233.826 184.919 232.675 185.971C231.557 186.967 230.207 187.465 228.624 187.465C225.912 187.465 223.992 186.142 222.863 183.497L226.051 182.02C226.493 182.794 226.831 183.287 227.063 183.497C227.517 183.918 228.06 184.128 228.69 184.128C229.952 184.128 230.583 183.552 230.583 182.401C230.583 181.737 230.096 181.118 229.122 180.542C228.746 180.354 228.369 180.171 227.993 179.994C227.617 179.817 227.235 179.634 226.848 179.446C225.763 178.915 224.999 178.384 224.557 177.853C223.992 177.177 223.71 176.309 223.71 175.246C223.71 173.84 224.191 172.678 225.154 171.76C226.139 170.841 227.335 170.382 228.74 170.382C230.81 170.382 232.348 171.45 233.355 173.586ZM247.542 173.586L244.454 175.229C243.967 174.233 243.364 173.735 242.644 173.735C242.301 173.735 242.008 173.852 241.765 174.084C241.521 174.305 241.399 174.593 241.399 174.947C241.399 175.567 242.119 176.181 243.558 176.79C245.539 177.642 246.872 178.428 247.559 179.147C248.245 179.867 248.588 180.835 248.588 182.053C248.588 183.613 248.012 184.919 246.861 185.971C245.743 186.967 244.393 187.465 242.811 187.465C240.099 187.465 238.179 186.142 237.05 183.497L240.237 182.02C240.68 182.794 241.018 183.287 241.25 183.497C241.704 183.918 242.246 184.128 242.877 184.128C244.139 184.128 244.769 183.552 244.769 182.401C244.769 181.737 244.283 181.118 243.309 180.542C242.932 180.354 242.556 180.171 242.18 179.994C241.803 179.817 241.422 179.634 241.034 179.446C239.949 178.915 239.186 178.384 238.743 177.853C238.179 177.177 237.896 176.309 237.896 175.246C237.896 173.84 238.378 172.678 239.341 171.76C240.326 170.841 241.521 170.382 242.927 170.382C244.996 170.382 246.535 171.45 247.542 173.586ZM254.357 170.83L258.591 180.061L263.156 169.353L267.755 180.061L271.938 170.83H276.122L267.655 188.212L263.156 177.803L258.607 188.212L250.157 170.83H254.357ZM277.642 178.799C277.642 176.464 278.477 174.477 280.148 172.839C281.82 171.201 283.856 170.382 286.258 170.382C288.67 170.382 290.718 171.206 292.4 172.855C294.06 174.505 294.891 176.53 294.891 178.932C294.891 181.355 294.055 183.386 292.384 185.024C290.701 186.651 288.637 187.465 286.191 187.465C283.767 187.465 281.737 186.635 280.099 184.975C278.461 183.337 277.642 181.278 277.642 178.799ZM281.46 178.865C281.46 180.481 281.892 181.759 282.755 182.7C283.64 183.652 284.808 184.128 286.258 184.128C287.719 184.128 288.886 183.658 289.761 182.717C290.635 181.776 291.072 180.52 291.072 178.948C291.072 177.377 290.635 176.12 289.761 175.18C288.875 174.228 287.708 173.752 286.258 173.752C284.83 173.752 283.673 174.228 282.788 175.18C281.903 176.132 281.46 177.36 281.46 178.865ZM299.232 170.83H302.968V172.274C303.654 171.555 304.263 171.062 304.794 170.797C305.336 170.52 305.978 170.382 306.72 170.382C307.705 170.382 308.734 170.703 309.807 171.345L308.098 174.765C307.389 174.256 306.697 174.001 306.022 174.001C303.986 174.001 302.968 175.539 302.968 178.616V187H299.232V170.83ZM324.011 158.96H327.763V187H324.011V185.307C322.539 186.745 320.873 187.465 319.014 187.465C316.8 187.465 314.963 186.657 313.502 185.041C312.052 183.392 311.327 181.333 311.327 178.865C311.327 176.452 312.052 174.438 313.502 172.822C314.941 171.195 316.75 170.382 318.931 170.382C320.823 170.382 322.516 171.157 324.011 172.706V158.96ZM315.145 178.865C315.145 180.415 315.56 181.676 316.391 182.65C317.243 183.635 318.316 184.128 319.611 184.128C320.995 184.128 322.113 183.652 322.965 182.7C323.817 181.715 324.243 180.465 324.243 178.948C324.243 177.432 323.817 176.181 322.965 175.196C322.113 174.233 321.006 173.752 319.644 173.752C318.361 173.752 317.287 174.239 316.424 175.213C315.571 176.198 315.145 177.415 315.145 178.865ZM340.77 175.03H344.522C344.522 176.713 344.074 178.068 343.178 179.098C342.015 180.437 340.527 181.106 338.712 181.106C337.118 181.106 335.784 180.553 334.711 179.446C333.626 178.328 333.084 176.962 333.084 175.346C333.084 174.062 333.421 173.033 334.096 172.258C334.783 171.472 335.945 170.786 337.583 170.199C339.21 169.602 340.239 169.12 340.671 168.755C341.113 168.39 341.335 167.825 341.335 167.062C341.335 166.298 341.102 165.695 340.638 165.252C340.184 164.798 339.575 164.571 338.811 164.571C338.048 164.571 337.439 164.793 336.985 165.235C336.531 165.678 336.305 166.281 336.305 167.045C336.305 167.388 336.371 167.864 336.504 168.473H332.636C332.613 168.185 332.591 167.93 332.569 167.709C332.558 167.488 332.553 167.288 332.553 167.111C332.553 165.363 333.145 163.907 334.329 162.745C335.502 161.583 336.985 161.002 338.778 161.002C340.582 161.002 342.087 161.589 343.294 162.762C344.5 163.935 345.103 165.401 345.103 167.161C345.103 168.965 344.5 170.421 343.294 171.527C342.53 172.225 341.091 172.9 338.977 173.553C337.539 173.995 336.819 174.693 336.819 175.645C336.819 175.91 336.869 176.165 336.969 176.408C337.079 176.641 337.223 176.845 337.4 177.022C337.577 177.2 337.782 177.338 338.014 177.438C338.258 177.537 338.513 177.587 338.778 177.587C339.996 177.587 340.66 176.735 340.77 175.03ZM336.537 185.141C336.537 184.521 336.764 183.984 337.218 183.53C337.671 183.076 338.214 182.85 338.845 182.85C339.475 182.85 340.018 183.076 340.471 183.53C340.925 183.984 341.152 184.526 341.152 185.157C341.152 185.799 340.925 186.347 340.471 186.801C340.029 187.243 339.492 187.465 338.861 187.465C338.208 187.465 337.66 187.243 337.218 186.801C336.764 186.347 336.537 185.794 336.537 185.141Z" fill="black"/>
<path d="M40.8439 216.001H35.7057V219.081H40.6944V220.899H35.7057V225.182H40.8439V227H33.7716V214.184H40.8439V216.001ZM42.619 218.915H44.4949V219.662C45.1479 219.015 45.8839 218.691 46.7029 218.691C47.6437 218.691 48.3769 218.987 48.9027 219.579C49.3564 220.083 49.5833 220.904 49.5833 222.044V227H47.7073V222.484C47.7073 221.688 47.5967 221.137 47.3753 220.833C47.1595 220.523 46.7666 220.368 46.1966 220.368C45.5768 220.368 45.1369 220.572 44.8768 220.982C44.6222 221.386 44.4949 222.091 44.4949 223.099V227H42.619V218.915ZM53.4668 220.658V227H51.5991V220.658H50.8023V218.915H51.5991V215.952H53.4668V218.915H54.9195V220.658H53.4668ZM63.2937 223.397H57.4997C57.5495 224.062 57.7654 224.59 58.1472 224.983C58.529 225.37 59.0188 225.564 59.6164 225.564C60.0813 225.564 60.4659 225.453 60.7702 225.232C61.0691 225.011 61.4094 224.601 61.7912 224.003L63.3684 224.883C63.1249 225.298 62.8676 225.655 62.5964 225.954C62.3253 226.247 62.0347 226.491 61.7248 226.685C61.4149 226.873 61.0801 227.011 60.7204 227.1C60.3607 227.188 59.9706 227.232 59.55 227.232C58.3437 227.232 57.3752 226.845 56.6448 226.07C55.9143 225.29 55.5491 224.255 55.5491 222.966C55.5491 221.688 55.9032 220.653 56.6116 219.861C57.3254 219.081 58.2717 218.691 59.4504 218.691C60.6402 218.691 61.581 219.07 62.2727 219.828C62.9589 220.581 63.302 221.624 63.302 222.958L63.2937 223.397ZM61.3762 221.87C61.1161 220.874 60.488 220.376 59.4919 220.376C59.265 220.376 59.052 220.412 58.8528 220.484C58.6535 220.55 58.4709 220.65 58.3049 220.783C58.1444 220.91 58.0061 221.065 57.8899 221.248C57.7737 221.43 57.6851 221.638 57.6243 221.87H61.3762ZM64.936 218.915H66.8037V219.637C67.1468 219.278 67.4511 219.031 67.7167 218.898C67.9879 218.76 68.3089 218.691 68.6796 218.691C69.1721 218.691 69.6868 218.851 70.2236 219.172L69.3686 220.882C69.0144 220.628 68.6686 220.5 68.331 220.5C67.3128 220.5 66.8037 221.27 66.8037 222.808V227H64.936V218.915ZM77.6503 220.658V227H75.7826V220.658H74.9857V218.915H75.7826V215.952H77.6503V218.915H79.1029V220.658H77.6503ZM80.3135 212.98H82.1812V219.587C82.8453 218.99 83.5785 218.691 84.3809 218.691C85.294 218.691 86.0245 218.987 86.5723 219.579C87.0372 220.094 87.2696 220.916 87.2696 222.044V227H85.4019V222.219C85.4019 221.571 85.2857 221.104 85.0533 220.816C84.8264 220.523 84.4584 220.376 83.9493 220.376C83.2963 220.376 82.837 220.578 82.5714 220.982C82.3113 221.391 82.1812 222.094 82.1812 223.09V227H80.3135V212.98ZM96.5984 223.397H90.8045C90.8543 224.062 91.0701 224.59 91.4519 224.983C91.8338 225.37 92.3235 225.564 92.9212 225.564C93.386 225.564 93.7706 225.453 94.075 225.232C94.3738 225.011 94.7141 224.601 95.096 224.003L96.6731 224.883C96.4296 225.298 96.1723 225.655 95.9011 225.954C95.63 226.247 95.3395 226.491 95.0296 226.685C94.7197 226.873 94.3849 227.011 94.0252 227.1C93.6655 227.188 93.2753 227.232 92.8548 227.232C91.6484 227.232 90.68 226.845 89.9495 226.07C89.219 225.29 88.8538 224.255 88.8538 222.966C88.8538 221.688 89.2079 220.653 89.9163 219.861C90.6301 219.081 91.5764 218.691 92.7551 218.691C93.9449 218.691 94.8857 219.07 95.5774 219.828C96.2636 220.581 96.6067 221.624 96.6067 222.958L96.5984 223.397ZM94.6809 221.87C94.4208 220.874 93.7927 220.376 92.7967 220.376C92.5698 220.376 92.3567 220.412 92.1575 220.484C91.9583 220.55 91.7757 220.65 91.6096 220.783C91.4492 220.91 91.3108 221.065 91.1946 221.248C91.0784 221.43 90.9899 221.638 90.929 221.87H94.6809ZM110.442 223.397H104.648C104.697 224.062 104.913 224.59 105.295 224.983C105.677 225.37 106.167 225.564 106.764 225.564C107.229 225.564 107.614 225.453 107.918 225.232C108.217 225.011 108.557 224.601 108.939 224.003L110.516 224.883C110.273 225.298 110.015 225.655 109.744 225.954C109.473 226.247 109.183 226.491 108.873 226.685C108.563 226.873 108.228 227.011 107.868 227.1C107.509 227.188 107.119 227.232 106.698 227.232C105.492 227.232 104.523 226.845 103.793 226.07C103.062 225.29 102.697 224.255 102.697 222.966C102.697 221.688 103.051 220.653 103.759 219.861C104.473 219.081 105.42 218.691 106.598 218.691C107.788 218.691 108.729 219.07 109.421 219.828C110.107 220.581 110.45 221.624 110.45 222.958L110.442 223.397ZM108.524 221.87C108.264 220.874 107.636 220.376 106.64 220.376C106.413 220.376 106.2 220.412 106.001 220.484C105.801 220.55 105.619 220.65 105.453 220.783C105.292 220.91 105.154 221.065 105.038 221.248C104.922 221.43 104.833 221.638 104.772 221.87H108.524ZM112.084 218.915H113.952V219.662C114.311 219.286 114.618 219.031 114.873 218.898C115.144 218.76 115.484 218.691 115.894 218.691C116.807 218.691 117.529 219.089 118.06 219.886C118.647 219.089 119.441 218.691 120.443 218.691C122.263 218.691 123.174 219.795 123.174 222.003V227H121.298V222.509C121.298 221.735 121.204 221.187 121.016 220.866C120.822 220.539 120.504 220.376 120.061 220.376C119.546 220.376 119.17 220.57 118.932 220.957C118.7 221.344 118.583 221.967 118.583 222.825V227H116.707V222.534C116.707 221.095 116.292 220.376 115.462 220.376C114.937 220.376 114.552 220.572 114.308 220.965C114.071 221.358 113.952 221.978 113.952 222.825V227H112.084V218.915ZM131.083 218.915H132.959V227H131.083V226.153C130.314 226.873 129.487 227.232 128.601 227.232C127.483 227.232 126.559 226.828 125.829 226.021C125.104 225.196 124.741 224.167 124.741 222.933C124.741 221.721 125.104 220.711 125.829 219.903C126.554 219.095 127.461 218.691 128.551 218.691C129.492 218.691 130.336 219.078 131.083 219.853V218.915ZM126.65 222.933C126.65 223.707 126.858 224.338 127.273 224.825C127.699 225.318 128.236 225.564 128.883 225.564C129.575 225.564 130.134 225.326 130.56 224.85C130.986 224.358 131.199 223.732 131.199 222.974C131.199 222.216 130.986 221.591 130.56 221.098C130.134 220.617 129.581 220.376 128.9 220.376C128.258 220.376 127.721 220.619 127.29 221.106C126.864 221.599 126.65 222.208 126.65 222.933ZM136.776 218.915V227H134.909V218.915H136.776ZM134.626 215.553C134.626 215.227 134.745 214.944 134.983 214.707C135.221 214.469 135.506 214.35 135.838 214.35C136.176 214.35 136.464 214.469 136.701 214.707C136.939 214.939 137.058 215.224 137.058 215.562C137.058 215.899 136.939 216.187 136.701 216.425C136.469 216.663 136.184 216.782 135.846 216.782C135.509 216.782 135.221 216.663 134.983 216.425C134.745 216.187 134.626 215.896 134.626 215.553ZM140.602 212.98V227H138.734V212.98H140.602ZM149.946 225.498L146.31 218.915H148.477L150.95 223.563L153.258 218.915H155.366L148.925 231.399H146.791L149.946 225.498ZM155.523 222.899C155.523 221.732 155.94 220.738 156.776 219.919C157.612 219.1 158.63 218.691 159.831 218.691C161.037 218.691 162.061 219.103 162.902 219.928C163.732 220.752 164.147 221.765 164.147 222.966C164.147 224.178 163.729 225.193 162.894 226.012C162.053 226.826 161.02 227.232 159.798 227.232C158.586 227.232 157.57 226.817 156.751 225.987C155.932 225.168 155.523 224.139 155.523 222.899ZM157.432 222.933C157.432 223.741 157.648 224.38 158.079 224.85C158.522 225.326 159.106 225.564 159.831 225.564C160.561 225.564 161.145 225.329 161.582 224.858C162.019 224.388 162.238 223.76 162.238 222.974C162.238 222.188 162.019 221.56 161.582 221.09C161.139 220.614 160.556 220.376 159.831 220.376C159.117 220.376 158.539 220.614 158.096 221.09C157.653 221.566 157.432 222.18 157.432 222.933ZM167.591 218.915V223.555C167.591 224.894 168.119 225.564 169.176 225.564C170.233 225.564 170.762 224.894 170.762 223.555V218.915H172.629V223.597C172.629 224.244 172.549 224.803 172.389 225.273C172.234 225.694 171.965 226.073 171.583 226.411C170.952 226.958 170.15 227.232 169.176 227.232C168.208 227.232 167.408 226.958 166.777 226.411C166.39 226.073 166.116 225.694 165.955 225.273C165.8 224.897 165.723 224.338 165.723 223.597V218.915H167.591ZM181.284 218.915V223.555C181.284 224.894 181.813 225.564 182.87 225.564C183.927 225.564 184.455 224.894 184.455 223.555V218.915H186.323V223.597C186.323 224.244 186.243 224.803 186.082 225.273C185.927 225.694 185.659 226.073 185.277 226.411C184.646 226.958 183.844 227.232 182.87 227.232C181.901 227.232 181.102 226.958 180.471 226.411C180.084 226.073 179.81 225.694 179.649 225.273C179.494 224.897 179.417 224.338 179.417 223.597V218.915H181.284ZM192.971 220.293L191.427 221.115C191.183 220.617 190.882 220.368 190.522 220.368C190.35 220.368 190.204 220.426 190.082 220.542C189.96 220.653 189.899 220.797 189.899 220.974C189.899 221.284 190.259 221.591 190.979 221.895C191.969 222.321 192.636 222.714 192.979 223.074C193.322 223.433 193.494 223.918 193.494 224.526C193.494 225.307 193.206 225.96 192.63 226.485C192.071 226.983 191.396 227.232 190.605 227.232C189.249 227.232 188.289 226.571 187.725 225.249L189.318 224.51C189.54 224.897 189.708 225.143 189.825 225.249C190.052 225.459 190.323 225.564 190.638 225.564C191.269 225.564 191.584 225.276 191.584 224.701C191.584 224.369 191.341 224.059 190.854 223.771C190.666 223.677 190.478 223.586 190.29 223.497C190.101 223.409 189.91 223.317 189.717 223.223C189.174 222.958 188.793 222.692 188.571 222.426C188.289 222.089 188.148 221.654 188.148 221.123C188.148 220.42 188.389 219.839 188.87 219.38C189.363 218.921 189.96 218.691 190.663 218.691C191.698 218.691 192.467 219.225 192.971 220.293ZM202.133 223.397H196.34C196.389 224.062 196.605 224.59 196.987 224.983C197.369 225.37 197.859 225.564 198.456 225.564C198.921 225.564 199.306 225.453 199.61 225.232C199.909 225.011 200.249 224.601 200.631 224.003L202.208 224.883C201.965 225.298 201.707 225.655 201.436 225.954C201.165 226.247 200.875 226.491 200.565 226.685C200.255 226.873 199.92 227.011 199.56 227.1C199.201 227.188 198.81 227.232 198.39 227.232C197.183 227.232 196.215 226.845 195.485 226.07C194.754 225.29 194.389 224.255 194.389 222.966C194.389 221.688 194.743 220.653 195.451 219.861C196.165 219.081 197.112 218.691 198.29 218.691C199.48 218.691 200.421 219.07 201.112 219.828C201.799 220.581 202.142 221.624 202.142 222.958L202.133 223.397ZM200.216 221.87C199.956 220.874 199.328 220.376 198.332 220.376C198.105 220.376 197.892 220.412 197.693 220.484C197.493 220.55 197.311 220.65 197.145 220.783C196.984 220.91 196.846 221.065 196.73 221.248C196.613 221.43 196.525 221.638 196.464 221.87H200.216ZM209.736 212.98H211.612V227H209.736V226.153C209 226.873 208.167 227.232 207.237 227.232C206.13 227.232 205.212 226.828 204.481 226.021C203.756 225.196 203.394 224.167 203.394 222.933C203.394 221.726 203.756 220.719 204.481 219.911C205.201 219.098 206.106 218.691 207.196 218.691C208.142 218.691 208.989 219.078 209.736 219.853V212.98ZM205.303 222.933C205.303 223.707 205.511 224.338 205.926 224.825C206.352 225.318 206.889 225.564 207.536 225.564C208.228 225.564 208.787 225.326 209.213 224.85C209.639 224.358 209.852 223.732 209.852 222.974C209.852 222.216 209.639 221.591 209.213 221.098C208.787 220.617 208.233 220.376 207.553 220.376C206.911 220.376 206.374 220.619 205.942 221.106C205.516 221.599 205.303 222.208 205.303 222.933ZM220.325 220.658V227H218.457V220.658H217.66V218.915H218.457V215.952H220.325V218.915H221.778V220.658H220.325ZM222.374 222.899C222.374 221.732 222.792 220.738 223.627 219.919C224.463 219.1 225.481 218.691 226.682 218.691C227.889 218.691 228.912 219.103 229.753 219.928C230.584 220.752 230.999 221.765 230.999 222.966C230.999 224.178 230.581 225.193 229.745 226.012C228.904 226.826 227.872 227.232 226.649 227.232C225.437 227.232 224.422 226.817 223.603 225.987C222.784 225.168 222.374 224.139 222.374 222.899ZM224.283 222.933C224.283 223.741 224.499 224.38 224.931 224.85C225.373 225.326 225.957 225.564 226.682 225.564C227.413 225.564 227.996 225.329 228.434 224.858C228.871 224.388 229.089 223.76 229.089 222.974C229.089 222.188 228.871 221.56 228.434 221.09C227.991 220.614 227.407 220.376 226.682 220.376C225.968 220.376 225.39 220.614 224.947 221.09C224.505 221.566 224.283 222.18 224.283 222.933ZM243.705 219.264V221.746C243.278 221.225 242.897 220.868 242.559 220.675C242.227 220.476 241.837 220.376 241.389 220.376C240.686 220.376 240.102 220.622 239.637 221.115C239.172 221.607 238.94 222.224 238.94 222.966C238.94 223.724 239.164 224.347 239.612 224.833C240.066 225.32 240.644 225.564 241.347 225.564C241.795 225.564 242.191 225.467 242.534 225.273C242.866 225.085 243.256 224.72 243.705 224.178V226.643C242.946 227.036 242.188 227.232 241.43 227.232C240.179 227.232 239.134 226.828 238.292 226.021C237.451 225.207 237.031 224.197 237.031 222.991C237.031 221.784 237.457 220.766 238.309 219.936C239.161 219.106 240.207 218.691 241.447 218.691C242.244 218.691 242.996 218.882 243.705 219.264ZM245.106 218.915H246.974V219.637C247.317 219.278 247.621 219.031 247.887 218.898C248.158 218.76 248.479 218.691 248.85 218.691C249.342 218.691 249.857 218.851 250.394 219.172L249.539 220.882C249.185 220.628 248.839 220.5 248.501 220.5C247.483 220.5 246.974 221.27 246.974 222.808V227H245.106V218.915ZM258.303 223.397H252.509C252.559 224.062 252.775 224.59 253.157 224.983C253.538 225.37 254.028 225.564 254.626 225.564C255.091 225.564 255.475 225.453 255.78 225.232C256.078 225.011 256.419 224.601 256.801 224.003L258.378 224.883C258.134 225.298 257.877 225.655 257.606 225.954C257.335 226.247 257.044 226.491 256.734 226.685C256.424 226.873 256.09 227.011 255.73 227.1C255.37 227.188 254.98 227.232 254.559 227.232C253.353 227.232 252.385 226.845 251.654 226.07C250.924 225.29 250.558 224.255 250.558 222.966C250.558 221.688 250.913 220.653 251.621 219.861C252.335 219.081 253.281 218.691 254.46 218.691C255.65 218.691 256.59 219.07 257.282 219.828C257.968 220.581 258.311 221.624 258.311 222.958L258.303 223.397ZM256.386 221.87C256.125 220.874 255.497 220.376 254.501 220.376C254.274 220.376 254.061 220.412 253.862 220.484C253.663 220.55 253.48 220.65 253.314 220.783C253.154 220.91 253.015 221.065 252.899 221.248C252.783 221.43 252.695 221.638 252.634 221.87H256.386ZM265.905 218.915H267.781V227H265.905V226.153C265.136 226.873 264.309 227.232 263.423 227.232C262.306 227.232 261.381 226.828 260.651 226.021C259.926 225.196 259.564 224.167 259.564 222.933C259.564 221.721 259.926 220.711 260.651 219.903C261.376 219.095 262.283 218.691 263.374 218.691C264.314 218.691 265.158 219.078 265.905 219.853V218.915ZM261.473 222.933C261.473 223.707 261.68 224.338 262.095 224.825C262.521 225.318 263.058 225.564 263.706 225.564C264.397 225.564 264.956 225.326 265.382 224.85C265.808 224.358 266.022 223.732 266.022 222.974C266.022 222.216 265.808 221.591 265.382 221.098C264.956 220.617 264.403 220.376 263.722 220.376C263.08 220.376 262.544 220.619 262.112 221.106C261.686 221.599 261.473 222.208 261.473 222.933ZM271.657 220.658V227H269.789V220.658H268.992V218.915H269.789V215.952H271.657V218.915H273.109V220.658H271.657ZM281.483 223.397H275.689C275.739 224.062 275.955 224.59 276.337 224.983C276.719 225.37 277.208 225.564 277.806 225.564C278.271 225.564 278.656 225.453 278.96 225.232C279.259 225.011 279.599 224.601 279.981 224.003L281.558 224.883C281.315 225.298 281.057 225.655 280.786 225.954C280.515 226.247 280.224 226.491 279.915 226.685C279.605 226.873 279.27 227.011 278.91 227.1C278.55 227.188 278.16 227.232 277.74 227.232C276.533 227.232 275.565 226.845 274.834 226.07C274.104 225.29 273.739 224.255 273.739 222.966C273.739 221.688 274.093 220.653 274.801 219.861C275.515 219.081 276.461 218.691 277.64 218.691C278.83 218.691 279.771 219.07 280.462 219.828C281.149 220.581 281.492 221.624 281.492 222.958L281.483 223.397ZM279.566 221.87C279.306 220.874 278.678 220.376 277.682 220.376C277.455 220.376 277.242 220.412 277.042 220.484C276.843 220.55 276.661 220.65 276.495 220.783C276.334 220.91 276.196 221.065 276.08 221.248C275.963 221.43 275.875 221.638 275.814 221.87H279.566ZM290.512 225.498L286.876 218.915H289.043L291.516 223.563L293.824 218.915H295.932L289.491 231.399H287.358L290.512 225.498ZM296.089 222.899C296.089 221.732 296.507 220.738 297.342 219.919C298.178 219.1 299.196 218.691 300.397 218.691C301.603 218.691 302.627 219.103 303.468 219.928C304.298 220.752 304.714 221.765 304.714 222.966C304.714 224.178 304.296 225.193 303.46 226.012C302.619 226.826 301.587 227.232 300.364 227.232C299.152 227.232 298.137 226.817 297.318 225.987C296.498 225.168 296.089 224.139 296.089 222.899ZM297.998 222.933C297.998 223.741 298.214 224.38 298.646 224.85C299.088 225.326 299.672 225.564 300.397 225.564C301.128 225.564 301.711 225.329 302.149 224.858C302.586 224.388 302.804 223.76 302.804 222.974C302.804 222.188 302.586 221.56 302.149 221.09C301.706 220.614 301.122 220.376 300.397 220.376C299.683 220.376 299.105 220.614 298.662 221.09C298.22 221.566 297.998 222.18 297.998 222.933ZM308.157 218.915V223.555C308.157 224.894 308.686 225.564 309.742 225.564C310.799 225.564 311.328 224.894 311.328 223.555V218.915H313.196V223.597C313.196 224.244 313.115 224.803 312.955 225.273C312.8 225.694 312.532 226.073 312.15 226.411C311.519 226.958 310.716 227.232 309.742 227.232C308.774 227.232 307.974 226.958 307.344 226.411C306.956 226.073 306.682 225.694 306.522 225.273C306.367 224.897 306.289 224.338 306.289 223.597V218.915H308.157ZM315.145 218.915H317.013V219.637C317.356 219.278 317.66 219.031 317.926 218.898C318.197 218.76 318.518 218.691 318.889 218.691C319.381 218.691 319.896 218.851 320.433 219.172L319.578 220.882C319.223 220.628 318.878 220.5 318.54 220.5C317.522 220.5 317.013 221.27 317.013 222.808V227H315.145V218.915ZM331.893 218.915H333.769V227H331.893V226.153C331.124 226.873 330.297 227.232 329.412 227.232C328.294 227.232 327.37 226.828 326.639 226.021C325.914 225.196 325.552 224.167 325.552 222.933C325.552 221.721 325.914 220.711 326.639 219.903C327.364 219.095 328.272 218.691 329.362 218.691C330.303 218.691 331.146 219.078 331.893 219.853V218.915ZM327.461 222.933C327.461 223.707 327.668 224.338 328.083 224.825C328.51 225.318 329.046 225.564 329.694 225.564C330.386 225.564 330.944 225.326 331.371 224.85C331.797 224.358 332.01 223.732 332.01 222.974C332.01 222.216 331.797 221.591 331.371 221.098C330.944 220.617 330.391 220.376 329.71 220.376C329.068 220.376 328.532 220.619 328.1 221.106C327.674 221.599 327.461 222.208 327.461 222.933ZM342.011 219.264V221.746C341.585 221.225 341.203 220.868 340.865 220.675C340.533 220.476 340.143 220.376 339.695 220.376C338.992 220.376 338.408 220.622 337.943 221.115C337.479 221.607 337.246 222.224 337.246 222.966C337.246 223.724 337.47 224.347 337.919 224.833C338.372 225.32 338.951 225.564 339.653 225.564C340.102 225.564 340.497 225.467 340.84 225.273C341.172 225.085 341.563 224.72 342.011 224.178V226.643C341.253 227.036 340.495 227.232 339.736 227.232C338.486 227.232 337.44 226.828 336.599 226.021C335.758 225.207 335.337 224.197 335.337 222.991C335.337 221.784 335.763 220.766 336.615 219.936C337.468 219.106 338.513 218.691 339.753 218.691C340.55 218.691 341.303 218.882 342.011 219.264ZM349.704 219.264V221.746C349.278 221.225 348.897 220.868 348.559 220.675C348.227 220.476 347.837 220.376 347.389 220.376C346.686 220.376 346.102 220.622 345.637 221.115C345.172 221.607 344.94 222.224 344.94 222.966C344.94 223.724 345.164 224.347 345.612 224.833C346.066 225.32 346.644 225.564 347.347 225.564C347.795 225.564 348.191 225.467 348.534 225.273C348.866 225.085 349.256 224.72 349.704 224.178V226.643C348.946 227.036 348.188 227.232 347.43 227.232C346.179 227.232 345.134 226.828 344.292 226.021C343.451 225.207 343.031 224.197 343.031 222.991C343.031 221.784 343.457 220.766 344.309 219.936C345.161 219.106 346.207 218.691 347.447 218.691C348.244 218.691 348.996 218.882 349.704 219.264ZM350.724 222.899C350.724 221.732 351.142 220.738 351.978 219.919C352.813 219.1 353.831 218.691 355.032 218.691C356.239 218.691 357.262 219.103 358.104 219.928C358.934 220.752 359.349 221.765 359.349 222.966C359.349 224.178 358.931 225.193 358.095 226.012C357.254 226.826 356.222 227.232 354.999 227.232C353.787 227.232 352.772 226.817 351.953 225.987C351.134 225.168 350.724 224.139 350.724 222.899ZM352.633 222.933C352.633 223.741 352.849 224.38 353.281 224.85C353.724 225.326 354.307 225.564 355.032 225.564C355.763 225.564 356.347 225.329 356.784 224.858C357.221 224.388 357.44 223.76 357.44 222.974C357.44 222.188 357.221 221.56 356.784 221.09C356.341 220.614 355.757 220.376 355.032 220.376C354.318 220.376 353.74 220.614 353.297 221.09C352.855 221.566 352.633 222.18 352.633 222.933ZM362.792 218.915V223.555C362.792 224.894 363.321 225.564 364.378 225.564C365.435 225.564 365.963 224.894 365.963 223.555V218.915H367.831V223.597C367.831 224.244 367.751 224.803 367.59 225.273C367.435 225.694 367.167 226.073 366.785 226.411C366.154 226.958 365.352 227.232 364.378 227.232C363.409 227.232 362.61 226.958 361.979 226.411C361.591 226.073 361.317 225.694 361.157 225.273C361.002 224.897 360.925 224.338 360.925 223.597V218.915H362.792ZM369.78 218.915H371.656V219.662C372.309 219.015 373.045 218.691 373.864 218.691C374.805 218.691 375.538 218.987 376.064 219.579C376.518 220.083 376.745 220.904 376.745 222.044V227H374.869V222.484C374.869 221.688 374.758 221.137 374.537 220.833C374.321 220.523 373.928 220.368 373.358 220.368C372.738 220.368 372.298 220.572 372.038 220.982C371.784 221.386 371.656 222.091 371.656 223.099V227H369.78V218.915ZM380.628 220.658V227H378.76V220.658H377.964V218.915H378.76V215.952H380.628V218.915H382.081V220.658H380.628ZM46.4054 240.915H48.2814V249H46.4054V248.153C45.6362 248.873 44.8089 249.232 43.9234 249.232C42.8056 249.232 41.8815 248.828 41.151 248.021C40.4261 247.196 40.0636 246.167 40.0636 244.933C40.0636 243.721 40.4261 242.711 41.151 241.903C41.8759 241.095 42.7835 240.691 43.8736 240.691C44.8144 240.691 45.6583 241.078 46.4054 241.853V240.915ZM41.9728 244.933C41.9728 245.707 42.1803 246.338 42.5953 246.825C43.0214 247.318 43.5582 247.564 44.2057 247.564C44.8974 247.564 45.4563 247.326 45.8824 246.85C46.3085 246.358 46.5216 245.732 46.5216 244.974C46.5216 244.216 46.3085 243.591 45.8824 243.098C45.4563 242.617 44.9029 242.376 44.2223 242.376C43.5803 242.376 43.0436 242.619 42.6119 243.106C42.1858 243.599 41.9728 244.208 41.9728 244.933ZM50.2308 240.915H52.1068V241.662C52.7597 241.015 53.4958 240.691 54.3148 240.691C55.2555 240.691 55.9888 240.987 56.5145 241.579C56.9682 242.083 57.1951 242.904 57.1951 244.044V249H55.3192V244.484C55.3192 243.688 55.2085 243.137 54.9871 242.833C54.7713 242.523 54.3784 242.368 53.8084 242.368C53.1886 242.368 52.7487 242.572 52.4886 242.982C52.234 243.386 52.1068 244.091 52.1068 245.099V249H50.2308V240.915ZM65.1128 234.98H66.9888V249H65.1128V248.153C64.3768 248.873 63.544 249.232 62.6143 249.232C61.5075 249.232 60.5889 248.828 59.8584 248.021C59.1335 247.196 58.771 246.167 58.771 244.933C58.771 243.726 59.1335 242.719 59.8584 241.911C60.5778 241.098 61.4826 240.691 62.5728 240.691C63.5191 240.691 64.3657 241.078 65.1128 241.853V234.98ZM60.6802 244.933C60.6802 245.707 60.8877 246.338 61.3028 246.825C61.7289 247.318 62.2656 247.564 62.9131 247.564C63.6048 247.564 64.1638 247.326 64.5899 246.85C65.016 246.358 65.229 245.732 65.229 244.974C65.229 244.216 65.016 243.591 64.5899 243.098C64.1638 242.617 63.6104 242.376 62.9297 242.376C62.2878 242.376 61.751 242.619 61.3194 243.106C60.8933 243.599 60.6802 244.208 60.6802 244.933ZM79.7363 240.915H81.6122V249H79.7363V248.153C78.9671 248.873 78.1398 249.232 77.2543 249.232C76.1365 249.232 75.2123 248.828 74.4819 248.021C73.7569 247.196 73.3945 246.167 73.3945 244.933C73.3945 243.721 73.7569 242.711 74.4819 241.903C75.2068 241.095 76.1144 240.691 77.2045 240.691C78.1453 240.691 78.9892 241.078 79.7363 241.853V240.915ZM75.3037 244.933C75.3037 245.707 75.5112 246.338 75.9262 246.825C76.3523 247.318 76.8891 247.564 77.5366 247.564C78.2283 247.564 78.7872 247.326 79.2133 246.85C79.6394 246.358 79.8525 245.732 79.8525 244.974C79.8525 244.216 79.6394 243.591 79.2133 243.098C78.7872 242.617 78.2338 242.376 77.5532 242.376C76.9112 242.376 76.3745 242.619 75.9428 243.106C75.5167 243.599 75.3037 244.208 75.3037 244.933ZM90.2674 234.98V249H88.3998V234.98H90.2674ZM94.0928 240.915V249H92.2252V240.915H94.0928ZM91.9429 237.553C91.9429 237.227 92.0619 236.944 92.2999 236.707C92.5378 236.469 92.8228 236.35 93.1548 236.35C93.4924 236.35 93.7802 236.469 94.0181 236.707C94.2561 236.939 94.3751 237.224 94.3751 237.562C94.3751 237.899 94.2561 238.187 94.0181 238.425C93.7857 238.663 93.5007 238.782 93.1631 238.782C92.8256 238.782 92.5378 238.663 92.2999 238.425C92.0619 238.187 91.9429 237.896 91.9429 237.553ZM96.0506 240.915H97.9265V241.662C98.5795 241.015 99.3155 240.691 100.135 240.691C101.075 240.691 101.809 240.987 102.334 241.579C102.788 242.083 103.015 242.904 103.015 244.044V249H101.139V244.484C101.139 243.688 101.028 243.137 100.807 242.833C100.591 242.523 100.198 242.368 99.6282 242.368C99.0084 242.368 98.5685 242.572 98.3084 242.982C98.0538 243.386 97.9265 244.091 97.9265 245.099V249H96.0506V240.915ZM106.84 234.98V243.53L109.472 240.915H111.979L108.467 244.31L112.236 249H109.812L107.139 245.588L106.84 245.887V249H104.973V234.98H106.84ZM119.795 242.658V249H117.928V242.658H117.131V240.915H117.928V237.952H119.795V240.915H121.248V242.658H119.795ZM121.844 244.899C121.844 243.732 122.262 242.738 123.098 241.919C123.933 241.1 124.952 240.691 126.152 240.691C127.359 240.691 128.383 241.103 129.224 241.928C130.054 242.752 130.469 243.765 130.469 244.966C130.469 246.178 130.051 247.193 129.215 248.012C128.374 248.826 127.342 249.232 126.119 249.232C124.907 249.232 123.892 248.817 123.073 247.987C122.254 247.168 121.844 246.139 121.844 244.899ZM123.754 244.933C123.754 245.741 123.969 246.38 124.401 246.85C124.844 247.326 125.428 247.564 126.152 247.564C126.883 247.564 127.467 247.329 127.904 246.858C128.341 246.388 128.56 245.76 128.56 244.974C128.56 244.188 128.341 243.56 127.904 243.09C127.461 242.614 126.877 242.376 126.152 242.376C125.439 242.376 124.86 242.614 124.418 243.09C123.975 243.566 123.754 244.18 123.754 244.933ZM136.883 240.915H138.751V241.637C139.094 241.278 139.398 241.031 139.664 240.898C139.935 240.76 140.256 240.691 140.626 240.691C141.119 240.691 141.634 240.851 142.17 241.172L141.315 242.882C140.961 242.628 140.615 242.5 140.278 242.5C139.26 242.5 138.751 243.27 138.751 244.808V249H136.883V240.915ZM150.08 245.397H144.286C144.336 246.062 144.551 246.59 144.933 246.983C145.315 247.37 145.805 247.564 146.403 247.564C146.867 247.564 147.252 247.453 147.556 247.232C147.855 247.011 148.196 246.601 148.577 246.003L150.155 246.883C149.911 247.298 149.654 247.655 149.383 247.954C149.111 248.247 148.821 248.491 148.511 248.685C148.201 248.873 147.866 249.011 147.507 249.1C147.147 249.188 146.757 249.232 146.336 249.232C145.13 249.232 144.161 248.845 143.431 248.07C142.7 247.29 142.335 246.255 142.335 244.966C142.335 243.688 142.689 242.653 143.398 241.861C144.112 241.081 145.058 240.691 146.237 240.691C147.426 240.691 148.367 241.07 149.059 241.828C149.745 242.581 150.088 243.624 150.088 244.958L150.08 245.397ZM148.162 243.87C147.902 242.874 147.274 242.376 146.278 242.376C146.051 242.376 145.838 242.412 145.639 242.484C145.44 242.55 145.257 242.65 145.091 242.783C144.931 242.91 144.792 243.065 144.676 243.248C144.56 243.43 144.471 243.638 144.41 243.87H148.162ZM156.42 242.293L154.876 243.115C154.633 242.617 154.331 242.368 153.972 242.368C153.8 242.368 153.653 242.426 153.532 242.542C153.41 242.653 153.349 242.797 153.349 242.974C153.349 243.284 153.709 243.591 154.428 243.895C155.419 244.321 156.086 244.714 156.429 245.074C156.772 245.433 156.943 245.918 156.943 246.526C156.943 247.307 156.656 247.96 156.08 248.485C155.521 248.983 154.846 249.232 154.055 249.232C152.699 249.232 151.739 248.571 151.174 247.249L152.768 246.51C152.989 246.897 153.158 247.143 153.274 247.249C153.501 247.459 153.772 247.564 154.088 247.564C154.719 247.564 155.034 247.276 155.034 246.701C155.034 246.369 154.791 246.059 154.304 245.771C154.115 245.677 153.927 245.586 153.739 245.497C153.551 245.409 153.36 245.317 153.166 245.223C152.624 244.958 152.242 244.692 152.021 244.426C151.739 244.089 151.598 243.654 151.598 243.123C151.598 242.42 151.838 241.839 152.32 241.38C152.812 240.921 153.41 240.691 154.113 240.691C155.148 240.691 155.917 241.225 156.42 242.293ZM165.583 245.397H159.789C159.839 246.062 160.055 246.59 160.437 246.983C160.819 247.37 161.308 247.564 161.906 247.564C162.371 247.564 162.755 247.453 163.06 247.232C163.359 247.011 163.699 246.601 164.081 246.003L165.658 246.883C165.414 247.298 165.157 247.655 164.886 247.954C164.615 248.247 164.324 248.491 164.014 248.685C163.704 248.873 163.37 249.011 163.01 249.1C162.65 249.188 162.26 249.232 161.84 249.232C160.633 249.232 159.665 248.845 158.934 248.07C158.204 247.29 157.839 246.255 157.839 244.966C157.839 243.688 158.193 242.653 158.901 241.861C159.615 241.081 160.561 240.691 161.74 240.691C162.93 240.691 163.87 241.07 164.562 241.828C165.248 242.581 165.591 243.624 165.591 244.958L165.583 245.397ZM163.666 243.87C163.406 242.874 162.777 242.376 161.781 242.376C161.555 242.376 161.341 242.412 161.142 242.484C160.943 242.55 160.76 242.65 160.594 242.783C160.434 242.91 160.296 243.065 160.179 243.248C160.063 243.43 159.975 243.638 159.914 243.87H163.666ZM169.301 242.658V249H167.433V242.658H166.636V240.915H167.433V237.952H169.301V240.915H170.753V242.658H169.301ZM179.002 247.498L175.366 240.915H177.532L180.006 245.563L182.314 240.915H184.422L177.981 253.399H175.847L179.002 247.498ZM184.579 244.899C184.579 243.732 184.996 242.738 185.832 241.919C186.668 241.1 187.686 240.691 188.887 240.691C190.093 240.691 191.117 241.103 191.958 241.928C192.788 242.752 193.203 243.765 193.203 244.966C193.203 246.178 192.785 247.193 191.95 248.012C191.109 248.826 190.076 249.232 188.854 249.232C187.642 249.232 186.626 248.817 185.807 247.987C184.988 247.168 184.579 246.139 184.579 244.899ZM186.488 244.933C186.488 245.741 186.704 246.38 187.135 246.85C187.578 247.326 188.162 247.564 188.887 247.564C189.617 247.564 190.201 247.329 190.638 246.858C191.075 246.388 191.294 245.76 191.294 244.974C191.294 244.188 191.075 243.56 190.638 243.09C190.195 242.614 189.612 242.376 188.887 242.376C188.173 242.376 187.595 242.614 187.152 243.09C186.709 243.566 186.488 244.18 186.488 244.933ZM196.647 240.915V245.555C196.647 246.894 197.175 247.564 198.232 247.564C199.289 247.564 199.818 246.894 199.818 245.555V240.915H201.685V245.597C201.685 246.244 201.605 246.803 201.445 247.273C201.29 247.694 201.021 248.073 200.639 248.411C200.008 248.958 199.206 249.232 198.232 249.232C197.264 249.232 196.464 248.958 195.833 248.411C195.446 248.073 195.172 247.694 195.011 247.273C194.856 246.897 194.779 246.338 194.779 245.597V240.915H196.647ZM203.635 240.915H205.502V241.637C205.845 241.278 206.15 241.031 206.415 240.898C206.687 240.76 207.008 240.691 207.378 240.691C207.871 240.691 208.385 240.851 208.922 241.172L208.067 242.882C207.713 242.628 207.367 242.5 207.03 242.5C206.011 242.5 205.502 243.27 205.502 244.808V249H203.635V240.915ZM216.291 253.399H214.423V240.915H216.291V241.795C217.027 241.059 217.862 240.691 218.798 240.691C219.91 240.691 220.826 241.1 221.545 241.919C222.276 242.733 222.641 243.759 222.641 244.999C222.641 246.211 222.278 247.221 221.554 248.029C220.834 248.831 219.927 249.232 218.831 249.232C217.885 249.232 217.038 248.853 216.291 248.095V253.399ZM220.732 245.007C220.732 244.233 220.521 243.602 220.101 243.115C219.675 242.622 219.138 242.376 218.491 242.376C217.804 242.376 217.248 242.614 216.822 243.09C216.396 243.566 216.183 244.191 216.183 244.966C216.183 245.724 216.396 246.349 216.822 246.842C217.243 247.323 217.796 247.564 218.482 247.564C219.13 247.564 219.664 247.32 220.084 246.833C220.516 246.347 220.732 245.738 220.732 245.007ZM230.168 240.915H232.044V249H230.168V248.153C229.399 248.873 228.572 249.232 227.687 249.232C226.569 249.232 225.645 248.828 224.914 248.021C224.189 247.196 223.827 246.167 223.827 244.933C223.827 243.721 224.189 242.711 224.914 241.903C225.639 241.095 226.547 240.691 227.637 240.691C228.577 240.691 229.421 241.078 230.168 241.853V240.915ZM225.736 244.933C225.736 245.707 225.943 246.338 226.358 246.825C226.785 247.318 227.321 247.564 227.969 247.564C228.66 247.564 229.219 247.326 229.646 246.85C230.072 246.358 230.285 245.732 230.285 244.974C230.285 244.216 230.072 243.591 229.646 243.098C229.219 242.617 228.666 242.376 227.985 242.376C227.343 242.376 226.807 242.619 226.375 243.106C225.949 243.599 225.736 244.208 225.736 244.933ZM238.692 242.293L237.148 243.115C236.905 242.617 236.603 242.368 236.243 242.368C236.072 242.368 235.925 242.426 235.803 242.542C235.682 242.653 235.621 242.797 235.621 242.974C235.621 243.284 235.981 243.591 236.7 243.895C237.69 244.321 238.357 244.714 238.7 245.074C239.044 245.433 239.215 245.918 239.215 246.526C239.215 247.307 238.927 247.96 238.352 248.485C237.793 248.983 237.118 249.232 236.326 249.232C234.971 249.232 234.01 248.571 233.446 247.249L235.04 246.51C235.261 246.897 235.43 247.143 235.546 247.249C235.773 247.459 236.044 247.564 236.36 247.564C236.99 247.564 237.306 247.276 237.306 246.701C237.306 246.369 237.062 246.059 236.575 245.771C236.387 245.677 236.199 245.586 236.011 245.497C235.823 245.409 235.632 245.317 235.438 245.223C234.896 244.958 234.514 244.692 234.293 244.426C234.01 244.089 233.869 243.654 233.869 243.123C233.869 242.42 234.11 241.839 234.592 241.38C235.084 240.921 235.682 240.691 236.384 240.691C237.419 240.691 238.189 241.225 238.692 242.293ZM245.19 242.293L243.646 243.115C243.403 242.617 243.101 242.368 242.742 242.368C242.57 242.368 242.423 242.426 242.302 242.542C242.18 242.653 242.119 242.797 242.119 242.974C242.119 243.284 242.479 243.591 243.198 243.895C244.189 244.321 244.856 244.714 245.199 245.074C245.542 245.433 245.713 245.918 245.713 246.526C245.713 247.307 245.426 247.96 244.85 248.485C244.291 248.983 243.616 249.232 242.825 249.232C241.469 249.232 240.509 248.571 239.944 247.249L241.538 246.51C241.759 246.897 241.928 247.143 242.044 247.249C242.271 247.459 242.542 247.564 242.858 247.564C243.489 247.564 243.804 247.276 243.804 246.701C243.804 246.369 243.561 246.059 243.074 245.771C242.886 245.677 242.697 245.586 242.509 245.497C242.321 245.409 242.13 245.317 241.936 245.223C241.394 244.958 241.012 244.692 240.791 244.426C240.509 244.089 240.368 243.654 240.368 243.123C240.368 242.42 240.608 241.839 241.09 241.38C241.582 240.921 242.18 240.691 242.883 240.691C243.918 240.691 244.687 241.225 245.19 242.293ZM248.003 240.915L250.12 245.53L252.402 240.176L254.702 245.53L256.794 240.915H258.885L254.652 249.606L252.402 244.401L250.128 249.606L245.903 240.915H248.003ZM259.05 244.899C259.05 243.732 259.468 242.738 260.304 241.919C261.139 241.1 262.157 240.691 263.358 240.691C264.565 240.691 265.588 241.103 266.43 241.928C267.26 242.752 267.675 243.765 267.675 244.966C267.675 246.178 267.257 247.193 266.421 248.012C265.58 248.826 264.548 249.232 263.325 249.232C262.113 249.232 261.098 248.817 260.279 247.987C259.46 247.168 259.05 246.139 259.05 244.899ZM260.959 244.933C260.959 245.741 261.175 246.38 261.607 246.85C262.049 247.326 262.633 247.564 263.358 247.564C264.089 247.564 264.673 247.329 265.11 246.858C265.547 246.388 265.765 245.76 265.765 244.974C265.765 244.188 265.547 243.56 265.11 243.09C264.667 242.614 264.083 242.376 263.358 242.376C262.644 242.376 262.066 242.614 261.623 243.09C261.181 243.566 260.959 244.18 260.959 244.933ZM269.251 240.915H271.118V241.637C271.461 241.278 271.766 241.031 272.031 240.898C272.302 240.76 272.623 240.691 272.994 240.691C273.487 240.691 274.001 240.851 274.538 241.172L273.683 242.882C273.329 242.628 272.983 242.5 272.646 242.5C271.627 242.5 271.118 243.27 271.118 244.808V249H269.251V240.915ZM281.045 234.98H282.921V249H281.045V248.153C280.309 248.873 279.476 249.232 278.546 249.232C277.439 249.232 276.521 248.828 275.79 248.021C275.065 247.196 274.703 246.167 274.703 244.933C274.703 243.726 275.065 242.719 275.79 241.911C276.51 241.098 277.414 240.691 278.505 240.691C279.451 240.691 280.298 241.078 281.045 241.853V234.98ZM276.612 244.933C276.612 245.707 276.82 246.338 277.235 246.825C277.661 247.318 278.198 247.564 278.845 247.564C279.537 247.564 280.096 247.326 280.522 246.85C280.948 246.358 281.161 245.732 281.161 244.974C281.161 244.216 280.948 243.591 280.522 243.098C280.096 242.617 279.542 242.376 278.862 242.376C278.22 242.376 277.683 242.619 277.251 243.106C276.825 243.599 276.612 244.208 276.612 244.933ZM290.721 240.915L292.838 245.53L295.12 240.176L297.42 245.53L299.511 240.915H301.603L297.37 249.606L295.12 244.401L292.846 249.606L288.621 240.915H290.721ZM304.333 240.915V249H302.465V240.915H304.333ZM302.183 237.553C302.183 237.227 302.302 236.944 302.54 236.707C302.778 236.469 303.063 236.35 303.395 236.35C303.732 236.35 304.02 236.469 304.258 236.707C304.496 236.939 304.615 237.224 304.615 237.562C304.615 237.899 304.496 238.187 304.258 238.425C304.026 238.663 303.741 238.782 303.403 238.782C303.066 238.782 302.778 238.663 302.54 238.425C302.302 238.187 302.183 237.896 302.183 237.553ZM308.158 234.98V249H306.291V234.98H308.158ZM311.984 234.98V249H310.116V234.98H311.984ZM320.647 234.98V241.853C321.394 241.078 322.241 240.691 323.187 240.691C324.277 240.691 325.185 241.098 325.91 241.911C326.635 242.719 326.997 243.726 326.997 244.933C326.997 246.178 326.632 247.207 325.902 248.021C325.177 248.828 324.261 249.232 323.154 249.232C322.219 249.232 321.383 248.873 320.647 248.153V249H318.78V234.98H320.647ZM325.088 245.016C325.088 244.241 324.878 243.61 324.457 243.123C324.031 242.625 323.497 242.376 322.855 242.376C322.169 242.376 321.61 242.617 321.178 243.098C320.752 243.574 320.539 244.194 320.539 244.958C320.539 245.743 320.75 246.371 321.17 246.842C321.591 247.323 322.144 247.564 322.83 247.564C323.478 247.564 324.015 247.323 324.441 246.842C324.872 246.355 325.088 245.746 325.088 245.016ZM335.928 245.397H330.134C330.184 246.062 330.399 246.59 330.781 246.983C331.163 247.37 331.653 247.564 332.25 247.564C332.715 247.564 333.1 247.453 333.404 247.232C333.703 247.011 334.043 246.601 334.425 246.003L336.002 246.883C335.759 247.298 335.502 247.655 335.23 247.954C334.959 248.247 334.669 248.491 334.359 248.685C334.049 248.873 333.714 249.011 333.354 249.1C332.995 249.188 332.605 249.232 332.184 249.232C330.978 249.232 330.009 248.845 329.279 248.07C328.548 247.29 328.183 246.255 328.183 244.966C328.183 243.688 328.537 242.653 329.246 241.861C329.959 241.081 330.906 240.691 332.084 240.691C333.274 240.691 334.215 241.07 334.907 241.828C335.593 242.581 335.936 243.624 335.936 244.958L335.928 245.397ZM334.01 243.87C333.75 242.874 333.122 242.376 332.126 242.376C331.899 242.376 331.686 242.412 331.487 242.484C331.288 242.55 331.105 242.65 330.939 242.783C330.778 242.91 330.64 243.065 330.524 243.248C330.408 243.43 330.319 243.638 330.258 243.87H334.01ZM347.106 242.293L345.562 243.115C345.319 242.617 345.017 242.368 344.658 242.368C344.486 242.368 344.339 242.426 344.218 242.542C344.096 242.653 344.035 242.797 344.035 242.974C344.035 243.284 344.395 243.591 345.114 243.895C346.105 244.321 346.772 244.714 347.115 245.074C347.458 245.433 347.629 245.918 347.629 246.526C347.629 247.307 347.342 247.96 346.766 248.485C346.207 248.983 345.532 249.232 344.741 249.232C343.385 249.232 342.425 248.571 341.86 247.249L343.454 246.51C343.675 246.897 343.844 247.143 343.96 247.249C344.187 247.459 344.458 247.564 344.774 247.564C345.405 247.564 345.72 247.276 345.72 246.701C345.72 246.369 345.477 246.059 344.99 245.771C344.801 245.677 344.613 245.586 344.425 245.497C344.237 245.409 344.046 245.317 343.852 245.223C343.31 244.958 342.928 244.692 342.707 244.426C342.425 244.089 342.284 243.654 342.284 243.123C342.284 242.42 342.524 241.839 343.006 241.38C343.498 240.921 344.096 240.691 344.799 240.691C345.834 240.691 346.603 241.225 347.106 242.293ZM356.269 245.397H350.475C350.525 246.062 350.741 246.59 351.123 246.983C351.504 247.37 351.994 247.564 352.592 247.564C353.057 247.564 353.441 247.453 353.746 247.232C354.044 247.011 354.385 246.601 354.767 246.003L356.344 246.883C356.1 247.298 355.843 247.655 355.572 247.954C355.301 248.247 355.01 248.491 354.7 248.685C354.39 248.873 354.056 249.011 353.696 249.1C353.336 249.188 352.946 249.232 352.525 249.232C351.319 249.232 350.351 248.845 349.62 248.07C348.89 247.29 348.524 246.255 348.524 244.966C348.524 243.688 348.879 242.653 349.587 241.861C350.301 241.081 351.247 240.691 352.426 240.691C353.616 240.691 354.556 241.07 355.248 241.828C355.934 242.581 356.277 243.624 356.277 244.958L356.269 245.397ZM354.352 243.87C354.092 242.874 353.463 242.376 352.467 242.376C352.24 242.376 352.027 242.412 351.828 242.484C351.629 242.55 351.446 242.65 351.28 242.783C351.12 242.91 350.982 243.065 350.865 243.248C350.749 243.43 350.661 243.638 350.6 243.87H354.352ZM357.911 240.915H359.787V241.662C360.44 241.015 361.176 240.691 361.995 240.691C362.936 240.691 363.669 240.987 364.195 241.579C364.649 242.083 364.876 242.904 364.876 244.044V249H363V244.484C363 243.688 362.889 243.137 362.668 242.833C362.452 242.523 362.059 242.368 361.489 242.368C360.869 242.368 360.429 242.572 360.169 242.982C359.915 243.386 359.787 244.091 359.787 245.099V249H357.911V240.915ZM368.759 242.658V249H366.892V242.658H366.095V240.915H366.892V237.952H368.759V240.915H370.212V242.658H368.759ZM371.364 248.07C371.364 247.76 371.478 247.492 371.705 247.265C371.932 247.038 372.203 246.925 372.518 246.925C372.834 246.925 373.105 247.038 373.332 247.265C373.559 247.492 373.672 247.763 373.672 248.079C373.672 248.4 373.559 248.674 373.332 248.9C373.11 249.122 372.839 249.232 372.518 249.232C372.192 249.232 371.918 249.122 371.696 248.9C371.475 248.679 371.364 248.402 371.364 248.07Z" fill="#3C3C43" fill-opacity="0.6"/>
<g style="mix-blend-mode:darken" filter="url(#filter1_d)">
<rect width="375" height="60" transform="translate(0 293)" fill="white"/>
<rect y="293" width="375" height="60" fill="white"/>
<path opacity="0.2" d="M16 352.5H359" stroke="black" stroke-width="0.5"/>
<g style="mix-blend-mode:darken">
<path d="M24.6079 319.001H19.4697V322.081H24.4585V323.899H19.4697V328.182H24.6079V330H17.5356V317.184H24.6079V319.001ZM26.383 321.915H28.2507V322.662C28.6104 322.286 28.9175 322.031 29.1721 321.898C29.4432 321.76 29.7836 321.691 30.1931 321.691C31.1062 321.691 31.8283 322.089 32.3596 322.886C32.9462 322.089 33.7403 321.691 34.7419 321.691C36.5625 321.691 37.4729 322.795 37.4729 325.003V330H35.5969V325.509C35.5969 324.735 35.5028 324.187 35.3147 323.866C35.121 323.539 34.8028 323.376 34.3601 323.376C33.8454 323.376 33.4691 323.57 33.2312 323.957C32.9987 324.344 32.8825 324.967 32.8825 325.825V330H31.0066V325.534C31.0066 324.095 30.5915 323.376 29.7614 323.376C29.2357 323.376 28.8511 323.572 28.6076 323.965C28.3697 324.358 28.2507 324.978 28.2507 325.825V330H26.383V321.915ZM45.3822 321.915H47.2582V330H45.3822V329.153C44.613 329.873 43.7857 330.232 42.9003 330.232C41.7825 330.232 40.8583 329.828 40.1278 329.021C39.4029 328.196 39.0404 327.167 39.0404 325.933C39.0404 324.721 39.4029 323.711 40.1278 322.903C40.8528 322.095 41.7603 321.691 42.8505 321.691C43.7913 321.691 44.6352 322.078 45.3822 322.853V321.915ZM40.9496 325.933C40.9496 326.707 41.1571 327.338 41.5722 327.825C41.9983 328.318 42.5351 328.564 43.1825 328.564C43.8743 328.564 44.4332 328.326 44.8593 327.85C45.2854 327.358 45.4985 326.732 45.4985 325.974C45.4985 325.216 45.2854 324.591 44.8593 324.098C44.4332 323.617 43.8798 323.376 43.1991 323.376C42.5572 323.376 42.0204 323.619 41.5888 324.106C41.1627 324.599 40.9496 325.208 40.9496 325.933ZM51.0753 321.915V330H49.2076V321.915H51.0753ZM48.9254 318.553C48.9254 318.227 49.0444 317.944 49.2823 317.707C49.5203 317.469 49.8053 317.35 50.1373 317.35C50.4749 317.35 50.7627 317.469 51.0006 317.707C51.2386 317.939 51.3575 318.224 51.3575 318.562C51.3575 318.899 51.2386 319.187 51.0006 319.425C50.7682 319.663 50.4832 319.782 50.1456 319.782C49.8081 319.782 49.5203 319.663 49.2823 319.425C49.0444 319.187 48.9254 318.896 48.9254 318.553ZM54.9007 315.98V330H53.033V315.98H54.9007Z" fill="#3C3C43"/>
</g>
</g>
<g filter="url(#filter2_d)">
<rect x="16" y="730" width="382" height="56" rx="14" fill="#9D2235"/>
<path d="M179.025 756.466C178.255 755.525 177.303 755.055 176.169 755.055C175.671 755.055 175.206 755.146 174.775 755.327C174.356 755.508 173.993 755.758 173.687 756.075C173.381 756.381 173.138 756.749 172.956 757.18C172.786 757.611 172.701 758.075 172.701 758.574C172.701 759.084 172.786 759.554 172.956 759.985C173.138 760.416 173.381 760.79 173.687 761.107C174.005 761.424 174.373 761.674 174.792 761.855C175.212 762.036 175.665 762.127 176.152 762.127C177.218 762.127 178.175 761.674 179.025 760.767V764.711L178.685 764.83C178.175 765.011 177.699 765.142 177.257 765.221C176.815 765.312 176.379 765.357 175.948 765.357C175.064 765.357 174.214 765.193 173.398 764.864C172.594 764.524 171.88 764.054 171.256 763.453C170.644 762.841 170.151 762.121 169.777 761.294C169.403 760.455 169.216 759.543 169.216 758.557C169.216 757.571 169.398 756.67 169.76 755.854C170.134 755.027 170.627 754.318 171.239 753.729C171.863 753.128 172.582 752.664 173.398 752.335C174.214 751.995 175.07 751.825 175.965 751.825C176.475 751.825 176.974 751.882 177.461 751.995C177.96 752.097 178.481 752.261 179.025 752.488V756.466ZM183.343 760.597C183.343 760.892 183.394 761.164 183.496 761.413C183.61 761.651 183.751 761.861 183.921 762.042C184.103 762.223 184.312 762.365 184.55 762.467C184.8 762.569 185.06 762.62 185.332 762.62C185.604 762.62 185.859 762.569 186.097 762.467C186.347 762.365 186.556 762.223 186.726 762.042C186.908 761.861 187.049 761.651 187.151 761.413C187.265 761.164 187.321 760.897 187.321 760.614C187.321 760.342 187.265 760.087 187.151 759.849C187.049 759.6 186.908 759.384 186.726 759.203C186.556 759.022 186.347 758.88 186.097 758.778C185.859 758.676 185.604 758.625 185.332 758.625C185.06 758.625 184.8 758.676 184.55 758.778C184.312 758.88 184.103 759.022 183.921 759.203C183.751 759.384 183.61 759.594 183.496 759.832C183.394 760.07 183.343 760.325 183.343 760.597ZM180.096 760.563C180.096 759.917 180.227 759.316 180.487 758.761C180.748 758.194 181.111 757.707 181.575 757.299C182.04 756.88 182.59 756.551 183.224 756.313C183.87 756.075 184.573 755.956 185.332 755.956C186.08 755.956 186.772 756.075 187.406 756.313C188.052 756.54 188.608 756.863 189.072 757.282C189.548 757.69 189.917 758.183 190.177 758.761C190.438 759.328 190.568 759.957 190.568 760.648C190.568 761.339 190.432 761.974 190.16 762.552C189.9 763.119 189.537 763.612 189.072 764.031C188.608 764.439 188.047 764.756 187.389 764.983C186.743 765.21 186.041 765.323 185.281 765.323C184.533 765.323 183.842 765.21 183.207 764.983C182.573 764.756 182.023 764.433 181.558 764.014C181.105 763.595 180.748 763.096 180.487 762.518C180.227 761.929 180.096 761.277 180.096 760.563ZM191.932 756.279H195.009V757.384C195.428 756.874 195.853 756.534 196.284 756.364C196.714 756.183 197.219 756.092 197.797 756.092C198.409 756.092 198.93 756.194 199.361 756.398C199.803 756.591 200.177 756.868 200.483 757.231C200.732 757.526 200.902 757.854 200.993 758.217C201.083 758.58 201.129 758.993 201.129 759.458V765H198.052V760.597C198.052 760.166 198.018 759.821 197.95 759.56C197.893 759.288 197.785 759.073 197.627 758.914C197.491 758.778 197.338 758.682 197.168 758.625C196.998 758.568 196.816 758.54 196.624 758.54C196.102 758.54 195.7 758.699 195.417 759.016C195.145 759.322 195.009 759.764 195.009 760.342V765H191.932V756.279ZM206.247 758.846V765H203.17V758.846H202.15V756.279H203.17V753.661H206.247V756.279H207.998V758.846H206.247ZM212.056 756.279V765H208.979V756.279H212.056ZM208.775 752.93C208.775 752.692 208.82 752.471 208.911 752.267C209.002 752.052 209.126 751.865 209.285 751.706C209.444 751.547 209.625 751.423 209.829 751.332C210.044 751.241 210.271 751.196 210.509 751.196C210.747 751.196 210.968 751.241 211.172 751.332C211.387 751.423 211.574 751.547 211.733 751.706C211.892 751.865 212.016 752.052 212.107 752.267C212.198 752.471 212.243 752.692 212.243 752.93C212.243 753.168 212.198 753.395 212.107 753.61C212.016 753.814 211.892 753.995 211.733 754.154C211.574 754.313 211.387 754.437 211.172 754.528C210.968 754.619 210.747 754.664 210.509 754.664C210.271 754.664 210.044 754.619 209.829 754.528C209.625 754.437 209.444 754.313 209.285 754.154C209.126 753.995 209.002 753.814 208.911 753.61C208.82 753.395 208.775 753.168 208.775 752.93ZM213.751 756.279H216.828V757.384C217.247 756.874 217.672 756.534 218.103 756.364C218.533 756.183 219.038 756.092 219.616 756.092C220.228 756.092 220.749 756.194 221.18 756.398C221.622 756.591 221.996 756.868 222.302 757.231C222.551 757.526 222.721 757.854 222.812 758.217C222.902 758.58 222.948 758.993 222.948 759.458V765H219.871V760.597C219.871 760.166 219.837 759.821 219.769 759.56C219.712 759.288 219.604 759.073 219.446 758.914C219.31 758.778 219.157 758.682 218.987 758.625C218.817 758.568 218.635 758.54 218.443 758.54C217.921 758.54 217.519 758.699 217.236 759.016C216.964 759.322 216.828 759.764 216.828 760.342V765H213.751V756.279ZM227.709 756.279V761.192C227.709 762.269 228.23 762.807 229.273 762.807C230.315 762.807 230.837 762.269 230.837 761.192V756.279H233.914V761.787C233.914 762.966 233.523 763.85 232.741 764.439C231.97 765.028 230.814 765.323 229.273 765.323C227.731 765.323 226.57 765.028 225.788 764.439C225.017 763.85 224.632 762.966 224.632 761.787V756.279H227.709ZM241.971 759.373C241.869 758.942 241.659 758.597 241.342 758.336C241.024 758.075 240.639 757.945 240.186 757.945C239.71 757.945 239.319 758.07 239.013 758.319C238.718 758.568 238.531 758.92 238.452 759.373H241.971ZM238.367 761.158C238.367 762.484 238.99 763.147 240.237 763.147C240.905 763.147 241.41 762.875 241.75 762.331H244.725C244.124 764.326 242.622 765.323 240.22 765.323C239.483 765.323 238.809 765.215 238.197 765C237.585 764.773 237.058 764.456 236.616 764.048C236.185 763.64 235.851 763.153 235.613 762.586C235.375 762.019 235.256 761.385 235.256 760.682C235.256 759.957 235.369 759.305 235.596 758.727C235.822 758.138 236.145 757.639 236.565 757.231C236.984 756.823 237.488 756.511 238.078 756.296C238.678 756.069 239.353 755.956 240.101 755.956C240.837 755.956 241.5 756.069 242.09 756.296C242.679 756.511 243.178 756.829 243.586 757.248C243.994 757.667 244.305 758.183 244.521 758.795C244.736 759.396 244.844 760.076 244.844 760.835V761.158H238.367Z" fill="white"/>
</g>
<g clip-path="url(#clip1)">
<path d="M98 -2H317C314.894 -1.39731 313.418 0.495246 313.345 2.68446L313.317 3.5618C313.317 17.0587 302.375 28 288.878 28H126.122C112.625 28 101.683 17.0587 101.683 3.5618L101.655 2.68447C101.582 0.49525 100.106 -1.39731 98 -2Z" fill="black"/>
<path opacity="0.35" d="M356.5 20C356.5 18.8034 357.47 17.8334 358.667 17.8334H375.333C376.53 17.8334 377.5 18.8034 377.5 20V26C377.5 27.1967 376.53 28.1667 375.333 28.1667H358.667C357.47 28.1667 356.5 27.1967 356.5 26V20Z" stroke="black"/>
<path opacity="0.4" d="M379 21V25C379.805 24.6613 380.328 23.8732 380.328 23C380.328 22.1269 379.805 21.3388 379 21Z" fill="black"/>
<path d="M358 20.6667C358 19.9303 358.597 19.3334 359.333 19.3334H374.667C375.403 19.3334 376 19.9303 376 20.6667V25.3334C376 26.0698 375.403 26.6667 374.667 26.6667H359.333C358.597 26.6667 358 26.0698 358 25.3334V20.6667Z" fill="black"/>
<path fill-rule="evenodd" clip-rule="evenodd" d="M343.33 19.608C345.546 19.6081 347.677 20.4596 349.283 21.9863C349.404 22.1042 349.598 22.1027 349.717 21.983L350.873 20.8163C350.933 20.7556 350.967 20.6734 350.966 20.5878C350.966 20.5022 350.931 20.4204 350.87 20.3603C346.655 16.3208 340.005 16.3208 335.79 20.3603C335.729 20.4203 335.694 20.5021 335.694 20.5877C335.693 20.6733 335.727 20.7556 335.787 20.8163L336.943 21.983C337.062 22.1029 337.256 22.1044 337.377 21.9863C338.983 20.4595 341.114 19.608 343.33 19.608ZM343.33 23.4037C344.548 23.4036 345.722 23.8561 346.624 24.6733C346.746 24.7893 346.939 24.7868 347.058 24.6677L348.212 23.501C348.273 23.4398 348.307 23.3568 348.306 23.2705C348.305 23.1843 348.27 23.102 348.208 23.042C345.459 20.4856 341.204 20.4856 338.455 23.042C338.393 23.102 338.358 23.1843 338.357 23.2706C338.356 23.3569 338.39 23.4399 338.451 23.501L339.605 24.6677C339.724 24.7868 339.917 24.7893 340.039 24.6733C340.941 23.8567 342.114 23.4042 343.33 23.4037ZM345.643 25.9575C345.645 26.044 345.611 26.1274 345.549 26.188L343.552 28.2037C343.493 28.2629 343.414 28.2963 343.33 28.2963C343.247 28.2963 343.167 28.2629 343.109 28.2037L341.111 26.188C341.049 26.1274 341.015 26.0439 341.017 25.9574C341.019 25.8709 341.056 25.789 341.121 25.731C342.396 24.6521 344.264 24.6521 345.54 25.731C345.604 25.7891 345.642 25.871 345.643 25.9575Z" fill="black"/>
<path fill-rule="evenodd" clip-rule="evenodd" d="M329.667 17.6666H328.667C328.114 17.6666 327.667 18.1143 327.667 18.6666V27.3333C327.667 27.8856 328.114 28.3333 328.667 28.3333H329.667C330.219 28.3333 330.667 27.8856 330.667 27.3333V18.6666C330.667 18.1143 330.219 17.6666 329.667 17.6666ZM324 20H325C325.552 20 326 20.4477 326 21V27.3333C326 27.8856 325.552 28.3333 325 28.3333H324C323.448 28.3333 323 27.8856 323 27.3333V21C323 20.4477 323.448 20 324 20ZM320.333 22.3333H319.333C318.781 22.3333 318.333 22.781 318.333 23.3333V27.3333C318.333 27.8856 318.781 28.3333 319.333 28.3333H320.333C320.886 28.3333 321.333 27.8856 321.333 27.3333V23.3333C321.333 22.781 320.886 22.3333 320.333 22.3333ZM315.667 24.3333H314.667C314.114 24.3333 313.667 24.781 313.667 25.3333V27.3333C313.667 27.8856 314.114 28.3333 314.667 28.3333H315.667C316.219 28.3333 316.667 27.8856 316.667 27.3333V25.3333C316.667 24.781 316.219 24.3333 315.667 24.3333Z" fill="black"/>
<path d="M57.3207 28.2563C60.0087 28.2563 61.6053 26.1543 61.6053 22.5947C61.6053 21.2544 61.349 20.1265 60.8583 19.2549C60.1478 17.8999 58.9247 17.1675 57.3793 17.1675C55.0795 17.1675 53.4535 18.7129 53.4535 20.8809C53.4535 22.917 54.9183 24.3965 56.9325 24.3965C58.1703 24.3965 59.1737 23.8179 59.6718 22.8145H59.6937C59.6937 22.8145 59.723 22.8145 59.7303 22.8145C59.745 22.8145 59.7963 22.8145 59.7963 22.8145C59.7963 25.2314 58.8807 26.6743 57.3353 26.6743C56.4271 26.6743 55.724 26.1763 55.4823 25.3779H53.6C53.9149 27.1138 55.3871 28.2563 57.3207 28.2563ZM57.3866 22.895C56.1708 22.895 55.3065 22.0308 55.3065 20.8223C55.3065 19.6431 56.2147 18.7422 57.3939 18.7422C58.5731 18.7422 59.4813 19.6577 59.4813 20.8516C59.4813 22.0308 58.5951 22.895 57.3866 22.895Z" fill="black"/>
<path d="M64.6965 28.1538C65.3923 28.1538 65.8683 27.6558 65.8683 26.9966C65.8683 26.3301 65.3923 25.8394 64.6965 25.8394C64.008 25.8394 63.5246 26.3301 63.5246 26.9966C63.5246 27.6558 64.008 28.1538 64.6965 28.1538ZM64.6965 22.6606C65.3923 22.6606 65.8683 22.1699 65.8683 21.5107C65.8683 20.8442 65.3923 20.3535 64.6965 20.3535C64.008 20.3535 63.5246 20.8442 63.5246 21.5107C63.5246 22.1699 64.008 22.6606 64.6965 22.6606Z" fill="black"/>
<path d="M72.7241 28H74.5332V26.0298H75.9614V24.4331H74.5332V17.4312H71.8672C69.9995 20.2437 68.5127 22.5947 67.5605 24.3452V26.0298H72.7241V28ZM69.311 24.3672C70.5415 22.1992 71.6401 20.4634 72.6509 18.9692H72.7534V24.4771H69.311V24.3672Z" fill="black"/>
<path d="M79.99 28H81.8797V17.4312H79.9973L77.2361 19.3647V21.1812L79.8655 19.3354H79.99V28Z" fill="black"/>
</g>
</g>
<defs>
<filter id="filter0_bd" x="-27.1828" y="-27.1828" width="468.366" height="142.366" filterUnits="userSpaceOnUse" color-interpolation-filters="sRGB">
<feFlood flood-opacity="0" result="BackgroundImageFix"/>
<feGaussianBlur in="BackgroundImage" stdDeviation="13.5914"/>
<feComposite in2="SourceAlpha" operator="in" result="effect1_backgroundBlur"/>
<feColorMatrix in="SourceAlpha" type="matrix" values="0 0 0 0 0 0 0 0 0 0 0 0 0 0 0 0 0 0 127 0"/>
<feOffset dy="0.5"/>
<feColorMatrix type="matrix" values="0 0 0 0 0 0 0 0 0 0 0 0 0 0 0 0 0 0 0.3 0"/>
<feBlend mode="normal" in2="effect1_backgroundBlur" result="effect2_dropShadow"/>
<feBlend mode="normal" in="SourceGraphic" in2="effect2_dropShadow" result="shape"/>
</filter>
<filter id="filter1_d" x="-4" y="293" width="383" height="68" filterUnits="userSpaceOnUse" color-interpolation-filters="sRGB">
<feFlood flood-opacity="0" result="BackgroundImageFix"/>
<feColorMatrix in="SourceAlpha" type="matrix" values="0 0 0 0 0 0 0 0 0 0 0 0 0 0 0 0 0 0 127 0"/>
<feOffset dy="4"/>
<feGaussianBlur stdDeviation="2"/>
<feColorMatrix type="matrix" values="0 0 0 0 0 0 0 0 0 0 0 0 0 0 0 0 0 0 0.25 0"/>
<feBlend mode="normal" in2="BackgroundImageFix" result="effect1_dropShadow"/>
<feBlend mode="normal" in="SourceGraphic" in2="effect1_dropShadow" result="shape"/>
</filter>
<filter id="filter2_d" x="12" y="730" width="390" height="64" filterUnits="userSpaceOnUse" color-interpolation-filters="sRGB">
<feFlood flood-opacity="0" result="BackgroundImageFix"/>
<feColorMatrix in="SourceAlpha" type="matrix" values="0 0 0 0 0 0 0 0 0 0 0 0 0 0 0 0 0 0 127 0"/>
<feOffset dy="4"/>
<feGaussianBlur stdDeviation="2"/>
<feColorMatrix type="matrix" values="0 0 0 0 0 0 0 0 0 0 0 0 0 0 0 0 0 0 0.25 0"/>
<feBlend mode="normal" in2="BackgroundImageFix" result="effect1_dropShadow"/>
<feBlend mode="normal" in="SourceGraphic" in2="effect1_dropShadow" result="shape"/>
</filter>
<linearGradient id="paint0_linear" x1="207" y1="896" x2="207" y2="-6.39848e-05" gradientUnits="userSpaceOnUse">
<stop stop-color="#9D2235"/>
<stop offset="0.630208" stop-color="white" stop-opacity="0"/>
</linearGradient>
<clipPath id="clip0">
<rect width="414" height="896" fill="white"/>
</clipPath>
<clipPath id="clip1">
<rect width="375" height="44" fill="white" transform="translate(20)"/>
</clipPath>
</defs>
</svg>
