<svg width="414" height="896" viewBox="0 0 414 896" fill="none" xmlns="http://www.w3.org/2000/svg">
<g clip-path="url(#clip0)">
<path d="M414 0H0V896H414V0Z" fill="#DFD1A7"/>
<path d="M414 0H0V896H414V0Z" fill="url(#paint0_linear)"/>
<rect x="141" y="883" width="134" height="5" rx="2.5" fill="black"/>
<g filter="url(#filter0_bd)">
<path d="M0 0H414V95C414 103.284 407.284 110 399 110H15C6.71573 110 0 103.284 0 95V0Z" fill="#F9F9F9" fill-opacity="0.94"/>
<g filter="url(#filter1_d)">
<path d="M140.479 88.48L137.487 79.946L134.495 88.48H140.479ZM142.247 93.546H132.727L131.197 98H124.091L133.849 72.364H141.125L150.883 98H143.777L142.247 93.546ZM166.554 86.202C165.488 85.4767 164.412 85.114 163.324 85.114C162.734 85.114 162.179 85.216 161.658 85.42C161.159 85.624 160.717 85.9187 160.332 86.304C159.946 86.6667 159.64 87.1087 159.414 87.63C159.21 88.1287 159.108 88.6953 159.108 89.33C159.108 89.942 159.21 90.5087 159.414 91.03C159.64 91.5287 159.935 91.9707 160.298 92.356C160.683 92.7187 161.136 93.002 161.658 93.206C162.179 93.41 162.734 93.512 163.324 93.512C164.48 93.512 165.556 93.1153 166.554 92.322V97.558C165.035 98.2153 163.596 98.544 162.236 98.544C160.966 98.544 159.754 98.3287 158.598 97.898C157.464 97.4673 156.456 96.8553 155.572 96.062C154.71 95.246 154.019 94.2827 153.498 93.172C152.976 92.0387 152.716 90.7807 152.716 89.398C152.716 88.0153 152.965 86.7573 153.464 85.624C153.962 84.468 154.642 83.482 155.504 82.666C156.365 81.8273 157.385 81.1813 158.564 80.728C159.765 80.252 161.046 80.014 162.406 80.014C163.902 80.014 165.284 80.3313 166.554 80.966V86.202ZM177.306 85.692V98H171.152V85.692H169.112V80.558H171.152V75.322H177.306V80.558H180.808V85.692H177.306ZM190.114 80.558V98H183.96V80.558H190.114ZM183.552 73.86C183.552 73.384 183.643 72.942 183.824 72.534C184.005 72.1033 184.255 71.7293 184.572 71.412C184.889 71.0947 185.252 70.8453 185.66 70.664C186.091 70.4827 186.544 70.392 187.02 70.392C187.496 70.392 187.938 70.4827 188.346 70.664C188.777 70.8453 189.151 71.0947 189.468 71.412C189.785 71.7293 190.035 72.1033 190.216 72.534C190.397 72.942 190.488 73.384 190.488 73.86C190.488 74.336 190.397 74.7893 190.216 75.22C190.035 75.628 189.785 75.9907 189.468 76.308C189.151 76.6253 188.777 76.8747 188.346 77.056C187.938 77.2373 187.496 77.328 187.02 77.328C186.544 77.328 186.091 77.2373 185.66 77.056C185.252 76.8747 184.889 76.6253 184.572 76.308C184.255 75.9907 184.005 75.628 183.824 75.22C183.643 74.7893 183.552 74.336 183.552 73.86ZM199.853 80.558L204.001 89.5L208.217 80.558H215.085L206.007 98H201.893L192.917 80.558H199.853ZM223.733 80.558V98H217.579V80.558H223.733ZM217.171 73.86C217.171 73.384 217.262 72.942 217.443 72.534C217.625 72.1033 217.874 71.7293 218.191 71.412C218.509 71.0947 218.871 70.8453 219.279 70.664C219.71 70.4827 220.163 70.392 220.639 70.392C221.115 70.392 221.557 70.4827 221.965 70.664C222.396 70.8453 222.77 71.0947 223.087 71.412C223.405 71.7293 223.654 72.1033 223.835 72.534C224.017 72.942 224.107 73.384 224.107 73.86C224.107 74.336 224.017 74.7893 223.835 75.22C223.654 75.628 223.405 75.9907 223.087 76.308C222.77 76.6253 222.396 76.8747 221.965 77.056C221.557 77.2373 221.115 77.328 220.639 77.328C220.163 77.328 219.71 77.2373 219.279 77.056C218.871 76.8747 218.509 76.6253 218.191 76.308C217.874 75.9907 217.625 75.628 217.443 75.22C217.262 74.7893 217.171 74.336 217.171 73.86ZM235.181 85.692V98H229.027V85.692H226.987V80.558H229.027V75.322H235.181V80.558H238.683V85.692H235.181ZM247.989 80.558V98H241.835V80.558H247.989ZM241.427 73.86C241.427 73.384 241.518 72.942 241.699 72.534C241.88 72.1033 242.13 71.7293 242.447 71.412C242.764 71.0947 243.127 70.8453 243.535 70.664C243.966 70.4827 244.419 70.392 244.895 70.392C245.371 70.392 245.813 70.4827 246.221 70.664C246.652 70.8453 247.026 71.0947 247.343 71.412C247.66 71.7293 247.91 72.1033 248.091 72.534C248.272 72.942 248.363 73.384 248.363 73.86C248.363 74.336 248.272 74.7893 248.091 75.22C247.91 75.628 247.66 75.9907 247.343 76.308C247.026 76.6253 246.652 76.8747 246.221 77.056C245.813 77.2373 245.371 77.328 244.895 77.328C244.419 77.328 243.966 77.2373 243.535 77.056C243.127 76.8747 242.764 76.6253 242.447 76.308C242.13 75.9907 241.88 75.628 241.699 75.22C241.518 74.7893 241.427 74.336 241.427 73.86ZM265.318 86.746C265.114 85.8847 264.695 85.1933 264.06 84.672C263.426 84.1507 262.655 83.89 261.748 83.89C260.796 83.89 260.014 84.1393 259.402 84.638C258.813 85.1367 258.439 85.8393 258.28 86.746H265.318ZM258.11 90.316C258.11 92.968 259.357 94.294 261.85 94.294C263.188 94.294 264.196 93.75 264.876 92.662H270.826C269.625 96.6513 266.622 98.646 261.816 98.646C260.343 98.646 258.994 98.4307 257.77 98C256.546 97.5467 255.492 96.912 254.608 96.096C253.747 95.28 253.078 94.3053 252.602 93.172C252.126 92.0387 251.888 90.7693 251.888 89.364C251.888 87.9133 252.115 86.61 252.568 85.454C253.022 84.2753 253.668 83.278 254.506 82.462C255.345 81.646 256.354 81.0227 257.532 80.592C258.734 80.1387 260.082 79.912 261.578 79.912C263.052 79.912 264.378 80.1387 265.556 80.592C266.735 81.0227 267.732 81.6573 268.548 82.496C269.364 83.3347 269.988 84.366 270.418 85.59C270.849 86.7913 271.064 88.1513 271.064 89.67V90.316H258.11ZM286.516 85.046C285.383 84.4567 284.272 84.162 283.184 84.162C282.617 84.162 282.153 84.2753 281.79 84.502C281.45 84.7287 281.28 85.0347 281.28 85.42C281.28 85.624 281.303 85.794 281.348 85.93C281.416 86.0433 281.541 86.1567 281.722 86.27C281.926 86.3833 282.209 86.4853 282.572 86.576C282.957 86.6667 283.456 86.78 284.068 86.916C285.768 87.256 287.037 87.868 287.876 88.752C288.715 89.6133 289.134 90.724 289.134 92.084C289.134 93.104 288.93 94.022 288.522 94.838C288.114 95.654 287.547 96.3453 286.822 96.912C286.097 97.456 285.224 97.8753 284.204 98.17C283.184 98.4873 282.062 98.646 280.838 98.646C278.481 98.646 276.157 97.9773 273.868 96.64L276.112 92.288C277.835 93.4667 279.467 94.056 281.008 94.056C281.575 94.056 282.039 93.9313 282.402 93.682C282.765 93.4327 282.946 93.1153 282.946 92.73C282.946 92.5033 282.912 92.322 282.844 92.186C282.799 92.0273 282.685 91.8913 282.504 91.778C282.323 91.642 282.051 91.5287 281.688 91.438C281.348 91.3247 280.895 91.2113 280.328 91.098C278.424 90.7127 277.087 90.146 276.316 89.398C275.568 88.6273 275.194 87.5733 275.194 86.236C275.194 85.2613 275.375 84.3887 275.738 83.618C276.101 82.8247 276.622 82.156 277.302 81.612C277.982 81.068 278.798 80.6487 279.75 80.354C280.725 80.0593 281.801 79.912 282.98 79.912C284.907 79.912 286.777 80.286 288.59 81.034L286.516 85.046Z" fill="#9D2235"/>
</g>
</g>
<g clip-path="url(#clip1)">
<path d="M98 -2H317C314.894 -1.39731 313.418 0.495246 313.345 2.68446L313.317 3.5618C313.317 17.0587 302.375 28 288.878 28H126.122C112.625 28 101.683 17.0587 101.683 3.5618L101.655 2.68447C101.582 0.49525 100.106 -1.39731 98 -2Z" fill="black"/>
<path opacity="0.35" d="M356.5 19.9999C356.5 18.8033 357.47 17.8333 358.667 17.8333H375.333C376.53 17.8333 377.5 18.8033 377.5 19.9999V25.9999C377.5 27.1965 376.53 28.1666 375.333 28.1666H358.667C357.47 28.1666 356.5 27.1965 356.5 25.9999V19.9999Z" stroke="black"/>
<path opacity="0.4" d="M379 21V25C379.805 24.6612 380.328 23.8731 380.328 23C380.328 22.1269 379.805 21.3388 379 21Z" fill="black"/>
<path d="M358 20.6666C358 19.9302 358.597 19.3333 359.333 19.3333H374.667C375.403 19.3333 376 19.9302 376 20.6666V25.3333C376 26.0696 375.403 26.6666 374.667 26.6666H359.333C358.597 26.6666 358 26.0696 358 25.3333V20.6666Z" fill="black"/>
<path fill-rule="evenodd" clip-rule="evenodd" d="M343.33 19.6079C345.546 19.608 347.677 20.4594 349.283 21.9862C349.404 22.1041 349.598 22.1026 349.717 21.9829L350.873 20.8162C350.933 20.7555 350.967 20.6733 350.966 20.5877C350.966 20.5021 350.931 20.4202 350.87 20.3602C346.655 16.3207 340.005 16.3207 335.79 20.3602C335.729 20.4202 335.694 20.502 335.694 20.5876C335.693 20.6732 335.727 20.7555 335.787 20.8162L336.943 21.9829C337.062 22.1028 337.256 22.1043 337.377 21.9862C338.983 20.4593 341.114 19.6079 343.33 19.6079ZM343.33 23.4036C344.548 23.4035 345.722 23.856 346.624 24.6732C346.746 24.7892 346.939 24.7867 347.058 24.6676L348.212 23.5009C348.273 23.4397 348.307 23.3567 348.306 23.2704C348.305 23.1842 348.27 23.1018 348.208 23.0419C345.459 20.4855 341.204 20.4855 338.455 23.0419C338.393 23.1018 338.358 23.1842 338.357 23.2705C338.356 23.3568 338.39 23.4398 338.451 23.5009L339.605 24.6676C339.724 24.7867 339.917 24.7892 340.039 24.6732C340.941 23.8566 342.114 23.4041 343.33 23.4036ZM345.643 25.9574C345.645 26.0439 345.611 26.1273 345.549 26.1879L343.552 28.2036C343.493 28.2628 343.414 28.2961 343.33 28.2961C343.247 28.2961 343.167 28.2628 343.109 28.2036L341.111 26.1879C341.049 26.1272 341.015 26.0438 341.017 25.9573C341.019 25.8708 341.056 25.7889 341.121 25.7309C342.396 24.652 344.264 24.652 345.54 25.7309C345.604 25.7889 345.642 25.8709 345.643 25.9574Z" fill="black"/>
<path fill-rule="evenodd" clip-rule="evenodd" d="M329.667 17.6665H328.667C328.114 17.6665 327.667 18.1142 327.667 18.6665V27.3332C327.667 27.8855 328.114 28.3332 328.667 28.3332H329.667C330.219 28.3332 330.667 27.8855 330.667 27.3332V18.6665C330.667 18.1142 330.219 17.6665 329.667 17.6665ZM324 19.9998H325C325.552 19.9998 326 20.4476 326 20.9998V27.3332C326 27.8855 325.552 28.3332 325 28.3332H324C323.448 28.3332 323 27.8855 323 27.3332V20.9998C323 20.4476 323.448 19.9998 324 19.9998ZM320.333 22.3332H319.333C318.781 22.3332 318.333 22.7809 318.333 23.3332V27.3332C318.333 27.8855 318.781 28.3332 319.333 28.3332H320.333C320.886 28.3332 321.333 27.8855 321.333 27.3332V23.3332C321.333 22.7809 320.886 22.3332 320.333 22.3332ZM315.667 24.3332H314.667C314.114 24.3332 313.667 24.7809 313.667 25.3332V27.3332C313.667 27.8855 314.114 28.3332 314.667 28.3332H315.667C316.219 28.3332 316.667 27.8855 316.667 27.3332V25.3332C316.667 24.7809 316.219 24.3332 315.667 24.3332Z" fill="black"/>
<path d="M57.3207 28.2563C60.0087 28.2563 61.6054 26.1543 61.6054 22.5947C61.6054 21.2544 61.349 20.1265 60.8583 19.2549C60.1479 17.8999 58.9247 17.1675 57.3793 17.1675C55.0795 17.1675 53.4535 18.7129 53.4535 20.8809C53.4535 22.917 54.9184 24.3965 56.9325 24.3965C58.1703 24.3965 59.1737 23.8179 59.6718 22.8145H59.6938C59.6938 22.8145 59.7231 22.8145 59.7304 22.8145C59.745 22.8145 59.7963 22.8145 59.7963 22.8145C59.7963 25.2314 58.8808 26.6743 57.3354 26.6743C56.4272 26.6743 55.724 26.1763 55.4823 25.3779H53.6C53.9149 27.1138 55.3871 28.2563 57.3207 28.2563ZM57.3866 22.895C56.1708 22.895 55.3065 22.0308 55.3065 20.8223C55.3065 19.6431 56.2148 18.7422 57.394 18.7422C58.5732 18.7422 59.4814 19.6577 59.4814 20.8516C59.4814 22.0308 58.5951 22.895 57.3866 22.895Z" fill="black"/>
<path d="M64.6965 28.1538C65.3923 28.1538 65.8684 27.6558 65.8684 26.9966C65.8684 26.3301 65.3923 25.8394 64.6965 25.8394C64.008 25.8394 63.5246 26.3301 63.5246 26.9966C63.5246 27.6558 64.008 28.1538 64.6965 28.1538ZM64.6965 22.6606C65.3923 22.6606 65.8684 22.1699 65.8684 21.5107C65.8684 20.8442 65.3923 20.3535 64.6965 20.3535C64.008 20.3535 63.5246 20.8442 63.5246 21.5107C63.5246 22.1699 64.008 22.6606 64.6965 22.6606Z" fill="black"/>
<path d="M72.7241 28H74.5332V26.0298H75.9614V24.4331H74.5332V17.4312H71.8672C69.9995 20.2437 68.5127 22.5947 67.5606 24.3452V26.0298H72.7241V28ZM69.311 24.3672C70.5415 22.1992 71.6401 20.4634 72.6509 18.9692H72.7534V24.4771H69.311V24.3672Z" fill="black"/>
<path d="M79.99 28H81.8797V17.4312H79.9974L77.2361 19.3647V21.1812L79.8655 19.3354H79.99V28Z" fill="black"/>
</g>
<g filter="url(#filter2_d)">
<rect x="217" y="179" width="153" height="129" rx="15" fill="#1947E6" stroke="#18191F" stroke-width="2"/>
<path d="M315.375 212.281H274.75C270.981 212.281 265.375 214.778 265.375 221.656V265.406C265.375 272.284 270.981 274.781 274.75 274.781H321.625V268.531H274.788C273.344 268.494 271.625 267.922 271.625 265.406C271.625 265.091 271.653 264.809 271.7 264.553C272.05 262.756 273.522 262.312 274.784 262.281H318.5C318.556 262.281 318.597 262.253 318.653 262.25H321.625V218.531C321.625 215.084 318.822 212.281 315.375 212.281ZM315.375 256.031H271.625V221.656C271.625 219.138 273.344 218.569 274.75 218.531H296.625V240.406L302.875 237.281L309.125 240.406V218.531H315.375V256.031Z" fill="#9D2235"/>
<path d="M276.902 333.377C276.506 333.864 276.018 334.233 275.44 334.482C274.874 334.743 274.25 334.873 273.57 334.873C272.913 334.873 272.318 334.788 271.785 334.618C271.253 334.448 270.714 334.165 270.17 333.768C269.638 333.383 269.037 332.839 268.368 332.136C267.337 331.966 266.419 331.598 265.614 331.031C264.81 330.464 264.181 329.75 263.727 328.889C263.285 328.028 263.064 327.081 263.064 326.05C263.064 324.871 263.348 323.812 263.914 322.871C264.492 321.93 265.28 321.194 266.277 320.661C267.286 320.128 268.419 319.862 269.677 319.862C270.935 319.862 272.063 320.128 273.06 320.661C274.069 321.194 274.857 321.93 275.423 322.871C276.001 323.812 276.29 324.871 276.29 326.05C276.29 327.387 275.922 328.572 275.185 329.603C274.46 330.623 273.48 331.354 272.244 331.796C272.471 332.045 272.692 332.221 272.907 332.323C273.134 332.425 273.378 332.476 273.638 332.476C274.307 332.476 274.908 332.198 275.44 331.643L276.902 333.377ZM266.464 326.05C266.464 326.719 266.606 327.314 266.889 327.835C267.173 328.345 267.558 328.742 268.045 329.025C268.533 329.308 269.077 329.45 269.677 329.45C270.278 329.45 270.822 329.308 271.309 329.025C271.797 328.742 272.182 328.345 272.465 327.835C272.749 327.314 272.89 326.719 272.89 326.05C272.89 325.381 272.749 324.792 272.465 324.282C272.182 323.761 271.797 323.358 271.309 323.075C270.822 322.792 270.278 322.65 269.677 322.65C269.077 322.65 268.533 322.792 268.045 323.075C267.558 323.358 267.173 323.761 266.889 324.282C266.606 324.792 266.464 325.381 266.464 326.05ZM287.59 322.786V332H284.513V331.014C284.173 331.388 283.765 331.671 283.289 331.864C282.813 332.057 282.309 332.153 281.776 332.153C280.586 332.153 279.634 331.802 278.92 331.099C278.218 330.396 277.866 329.342 277.866 327.937V322.786H281.096V327.41C281.096 328.101 281.227 328.606 281.487 328.923C281.748 329.24 282.128 329.399 282.626 329.399C283.136 329.399 283.55 329.223 283.867 328.872C284.196 328.509 284.36 327.96 284.36 327.223V322.786H287.59ZM289.671 322.786H292.901V332H289.671V322.786ZM291.286 321.766C290.696 321.766 290.22 321.602 289.858 321.273C289.495 320.944 289.314 320.536 289.314 320.049C289.314 319.562 289.495 319.154 289.858 318.825C290.22 318.496 290.696 318.332 291.286 318.332C291.875 318.332 292.351 318.491 292.714 318.808C293.076 319.114 293.258 319.511 293.258 319.998C293.258 320.508 293.076 320.933 292.714 321.273C292.351 321.602 291.875 321.766 291.286 321.766ZM303.024 329.586V332H294.524V330.096L298.791 325.183H294.643V322.786H302.854V324.673L298.587 329.586H303.024ZM313.765 327.41C313.765 327.433 313.748 327.699 313.714 328.209H307.016C307.152 328.685 307.412 329.053 307.798 329.314C308.194 329.563 308.687 329.688 309.277 329.688C309.719 329.688 310.098 329.626 310.416 329.501C310.744 329.376 311.073 329.172 311.402 328.889L313.102 330.657C312.206 331.654 310.897 332.153 309.175 332.153C308.098 332.153 307.152 331.949 306.336 331.541C305.52 331.133 304.885 330.566 304.432 329.841C303.99 329.116 303.769 328.294 303.769 327.376C303.769 326.469 303.984 325.659 304.415 324.945C304.857 324.22 305.463 323.653 306.234 323.245C307.004 322.837 307.871 322.633 308.835 322.633C309.753 322.633 310.586 322.826 311.334 323.211C312.082 323.585 312.671 324.135 313.102 324.86C313.544 325.574 313.765 326.424 313.765 327.41ZM308.852 324.928C308.353 324.928 307.934 325.07 307.594 325.353C307.265 325.636 307.055 326.022 306.965 326.509H310.739C310.648 326.022 310.433 325.636 310.093 325.353C309.764 325.07 309.35 324.928 308.852 324.928ZM318.603 332.153C317.832 332.153 317.073 332.068 316.325 331.898C315.577 331.717 314.976 331.484 314.523 331.201L315.492 328.991C315.911 329.252 316.41 329.461 316.988 329.62C317.566 329.767 318.138 329.841 318.705 329.841C319.226 329.841 319.594 329.79 319.81 329.688C320.036 329.575 320.15 329.416 320.15 329.212C320.15 329.008 320.014 328.866 319.742 328.787C319.481 328.696 319.062 328.611 318.484 328.532C317.747 328.441 317.118 328.322 316.597 328.175C316.087 328.028 315.645 327.756 315.271 327.359C314.897 326.962 314.71 326.407 314.71 325.693C314.71 325.104 314.885 324.582 315.237 324.129C315.588 323.664 316.098 323.302 316.767 323.041C317.447 322.769 318.257 322.633 319.198 322.633C319.866 322.633 320.529 322.701 321.187 322.837C321.844 322.973 322.394 323.166 322.836 323.415L321.867 325.608C321.051 325.155 320.167 324.928 319.215 324.928C318.705 324.928 318.331 324.99 318.093 325.115C317.855 325.228 317.736 325.381 317.736 325.574C317.736 325.789 317.866 325.942 318.127 326.033C318.387 326.112 318.818 326.197 319.419 326.288C320.178 326.401 320.807 326.532 321.306 326.679C321.804 326.826 322.235 327.098 322.598 327.495C322.972 327.88 323.159 328.424 323.159 329.127C323.159 329.705 322.983 330.226 322.632 330.691C322.28 331.144 321.759 331.501 321.068 331.762C320.388 332.023 319.566 332.153 318.603 332.153Z" fill="#18191F"/>
<path d="M337.959 333.5C337.876 333.5 337.794 333.5 337.711 333.415H337.629C335.813 332.483 331.522 329.856 330.037 325.703C329.789 324.941 329.211 321.805 331.027 319.856C332.1 318.669 333.09 318.5 333.75 318.5C335.318 318.5 336.968 319.432 337.959 320.788C338.949 319.347 340.434 318.5 342.167 318.5C342.828 318.5 343.818 318.669 344.973 319.856C346.789 321.805 346.211 325.025 345.963 325.703C344.478 329.941 340.104 332.483 338.371 333.415C338.206 333.5 338.041 333.5 337.959 333.5Z" stroke="#18191F" stroke-width="2" stroke-linecap="round" stroke-linejoin="round"/>
</g>
<g filter="url(#filter3_d)">
<rect x="25" y="152" width="153" height="198" rx="15" fill="#FFBD12" stroke="#18191F" stroke-width="2"/>
<path d="M73.4375 262.812C73.1875 270.375 74.4375 276.375 75.5312 277.469C76.625 278.562 82.6562 279.844 90.1875 279.562L73.4375 262.812ZM104.875 224.25C97.5937 225.562 89.9062 228.437 84.1875 234.187C78.4687 239.937 75.5625 247.594 74.25 254.875L98.0937 278.719C105.406 277.437 113.062 274.531 118.781 268.781C124.5 263.031 127.406 255.375 128.719 248.094L104.875 224.25ZM94.9375 262.437L90.5625 258.062L108.062 240.562L112.437 244.937L94.9375 262.437ZM129.562 240.187C129.812 232.625 128.562 226.625 127.469 225.531C126.375 224.437 120.344 223.156 112.812 223.437L129.562 240.187Z" fill="#9D2235"/>
<path d="M33.4042 370.795H36.3792V375.725C35.6992 376.212 34.9172 376.586 34.0332 376.847C33.1492 377.108 32.2652 377.238 31.3812 377.238C30.1345 377.238 29.0125 376.977 28.0152 376.456C27.0179 375.923 26.2359 375.187 25.6692 374.246C25.1025 373.305 24.8192 372.24 24.8192 371.05C24.8192 369.86 25.1025 368.795 25.6692 367.854C26.2359 366.913 27.0235 366.182 28.0322 365.661C29.0409 365.128 30.1799 364.862 31.4492 364.862C32.5599 364.862 33.5572 365.049 34.4412 365.423C35.3252 365.797 36.0619 366.335 36.6512 367.038L34.5092 368.976C33.7045 368.092 32.7412 367.65 31.6192 367.65C30.5992 367.65 29.7775 367.962 29.1542 368.585C28.5309 369.197 28.2192 370.019 28.2192 371.05C28.2192 371.707 28.3609 372.297 28.6442 372.818C28.9275 373.328 29.3242 373.73 29.8342 374.025C30.3442 374.308 30.9279 374.45 31.5852 374.45C32.2312 374.45 32.8375 374.32 33.4042 374.059V370.795ZM48.0502 367.786V377H44.9732V376.014C44.6332 376.388 44.2252 376.671 43.7492 376.864C43.2732 377.057 42.7689 377.153 42.2362 377.153C41.0462 377.153 40.0942 376.802 39.3802 376.099C38.6776 375.396 38.3262 374.342 38.3262 372.937V367.786H41.5562V372.41C41.5562 373.101 41.6866 373.606 41.9472 373.923C42.2079 374.24 42.5876 374.399 43.0862 374.399C43.5962 374.399 44.0099 374.223 44.3272 373.872C44.6559 373.509 44.8202 372.96 44.8202 372.223V367.786H48.0502ZM50.1308 367.786H53.3608V377H50.1308V367.786ZM51.7458 366.766C51.1564 366.766 50.6804 366.602 50.3178 366.273C49.9551 365.944 49.7738 365.536 49.7738 365.049C49.7738 364.562 49.9551 364.154 50.3178 363.825C50.6804 363.496 51.1564 363.332 51.7458 363.332C52.3351 363.332 52.8111 363.491 53.1738 363.808C53.5364 364.114 53.7178 364.511 53.7178 364.998C53.7178 365.508 53.5364 365.933 53.1738 366.273C52.8111 366.602 52.3351 366.766 51.7458 366.766ZM65.2519 364.386V377H62.1749V376.082C61.5742 376.796 60.6732 377.153 59.4719 377.153C58.6332 377.153 57.8682 376.96 57.1769 376.575C56.4855 376.178 55.9359 375.617 55.5279 374.892C55.1312 374.167 54.9329 373.328 54.9329 372.376C54.9329 371.424 55.1312 370.591 55.5279 369.877C55.9359 369.152 56.4855 368.596 57.1769 368.211C57.8682 367.826 58.6332 367.633 59.4719 367.633C60.5712 367.633 61.4212 367.95 62.0219 368.585V364.386H65.2519ZM60.1519 374.586C60.7072 374.586 61.1662 374.393 61.5289 374.008C61.8915 373.611 62.0729 373.067 62.0729 372.376C62.0729 371.696 61.8915 371.163 61.5289 370.778C61.1775 370.393 60.7185 370.2 60.1519 370.2C59.5852 370.2 59.1205 370.393 58.7579 370.778C58.3952 371.163 58.2139 371.696 58.2139 372.376C58.2139 373.067 58.3952 373.611 58.7579 374.008C59.1205 374.393 59.5852 374.586 60.1519 374.586ZM76.748 372.41C76.748 372.433 76.731 372.699 76.697 373.209H69.999C70.135 373.685 70.3956 374.053 70.781 374.314C71.1776 374.563 71.6706 374.688 72.26 374.688C72.702 374.688 73.0816 374.626 73.399 374.501C73.7276 374.376 74.0563 374.172 74.385 373.889L76.085 375.657C75.1896 376.654 73.8806 377.153 72.158 377.153C71.0813 377.153 70.135 376.949 69.319 376.541C68.503 376.133 67.8683 375.566 67.415 374.841C66.973 374.116 66.752 373.294 66.752 372.376C66.752 371.469 66.9673 370.659 67.398 369.945C67.84 369.22 68.4463 368.653 69.217 368.245C69.9876 367.837 70.8546 367.633 71.818 367.633C72.736 367.633 73.569 367.826 74.317 368.211C75.065 368.585 75.6543 369.135 76.085 369.86C76.527 370.574 76.748 371.424 76.748 372.41ZM71.835 369.928C71.3363 369.928 70.917 370.07 70.577 370.353C70.2483 370.636 70.0386 371.022 69.948 371.509H73.722C73.6313 371.022 73.416 370.636 73.076 370.353C72.7473 370.07 72.3336 369.928 71.835 369.928ZM88.0292 364.386V377H84.9522V376.082C84.3515 376.796 83.4505 377.153 82.2492 377.153C81.4105 377.153 80.6455 376.96 79.9542 376.575C79.2629 376.178 78.7132 375.617 78.3052 374.892C77.9085 374.167 77.7102 373.328 77.7102 372.376C77.7102 371.424 77.9085 370.591 78.3052 369.877C78.7132 369.152 79.2629 368.596 79.9542 368.211C80.6455 367.826 81.4105 367.633 82.2492 367.633C83.3485 367.633 84.1985 367.95 84.7992 368.585V364.386H88.0292ZM82.9292 374.586C83.4845 374.586 83.9435 374.393 84.3062 374.008C84.6689 373.611 84.8502 373.067 84.8502 372.376C84.8502 371.696 84.6689 371.163 84.3062 370.778C83.9549 370.393 83.4959 370.2 82.9292 370.2C82.3625 370.2 81.8979 370.393 81.5352 370.778C81.1725 371.163 80.9912 371.696 80.9912 372.376C80.9912 373.067 81.1725 373.611 81.5352 374.008C81.8979 374.393 82.3625 374.586 82.9292 374.586ZM107.278 365.1L102.178 377H98.8626L93.7796 365.1H97.4176L100.648 372.852L103.946 365.1H107.278ZM108.07 367.786H111.3V377H108.07V367.786ZM109.685 366.766C109.096 366.766 108.62 366.602 108.257 366.273C107.895 365.944 107.713 365.536 107.713 365.049C107.713 364.562 107.895 364.154 108.257 363.825C108.62 363.496 109.096 363.332 109.685 363.332C110.275 363.332 110.751 363.491 111.113 363.808C111.476 364.114 111.657 364.511 111.657 364.998C111.657 365.508 111.476 365.933 111.113 366.273C110.751 366.602 110.275 366.766 109.685 366.766ZM123.191 364.386V377H120.114V376.082C119.514 376.796 118.613 377.153 117.411 377.153C116.573 377.153 115.808 376.96 115.116 376.575C114.425 376.178 113.875 375.617 113.467 374.892C113.071 374.167 112.872 373.328 112.872 372.376C112.872 371.424 113.071 370.591 113.467 369.877C113.875 369.152 114.425 368.596 115.116 368.211C115.808 367.826 116.573 367.633 117.411 367.633C118.511 367.633 119.361 367.95 119.961 368.585V364.386H123.191ZM118.091 374.586C118.647 374.586 119.106 374.393 119.468 374.008C119.831 373.611 120.012 373.067 120.012 372.376C120.012 371.696 119.831 371.163 119.468 370.778C119.117 370.393 118.658 370.2 118.091 370.2C117.525 370.2 117.06 370.393 116.697 370.778C116.335 371.163 116.153 371.696 116.153 372.376C116.153 373.067 116.335 373.611 116.697 374.008C117.06 374.393 117.525 374.586 118.091 374.586ZM134.687 372.41C134.687 372.433 134.67 372.699 134.636 373.209H127.938C128.074 373.685 128.335 374.053 128.72 374.314C129.117 374.563 129.61 374.688 130.199 374.688C130.641 374.688 131.021 374.626 131.338 374.501C131.667 374.376 131.996 374.172 132.324 373.889L134.024 375.657C133.129 376.654 131.82 377.153 130.097 377.153C129.021 377.153 128.074 376.949 127.258 376.541C126.442 376.133 125.808 375.566 125.354 374.841C124.912 374.116 124.691 373.294 124.691 372.376C124.691 371.469 124.907 370.659 125.337 369.945C125.779 369.22 126.386 368.653 127.156 368.245C127.927 367.837 128.794 367.633 129.757 367.633C130.675 367.633 131.508 367.826 132.256 368.211C133.004 368.585 133.594 369.135 134.024 369.86C134.466 370.574 134.687 371.424 134.687 372.41ZM129.774 369.928C129.276 369.928 128.856 370.07 128.516 370.353C128.188 370.636 127.978 371.022 127.887 371.509H131.661C131.571 371.022 131.355 370.636 131.015 370.353C130.687 370.07 130.273 369.928 129.774 369.928ZM140.801 377.153C139.815 377.153 138.925 376.949 138.132 376.541C137.338 376.133 136.715 375.566 136.262 374.841C135.82 374.116 135.599 373.294 135.599 372.376C135.599 371.469 135.82 370.653 136.262 369.928C136.715 369.203 137.333 368.642 138.115 368.245C138.908 367.837 139.803 367.633 140.801 367.633C141.798 367.633 142.693 367.837 143.487 368.245C144.28 368.642 144.898 369.203 145.34 369.928C145.782 370.642 146.003 371.458 146.003 372.376C146.003 373.294 145.782 374.116 145.34 374.841C144.898 375.566 144.28 376.133 143.487 376.541C142.693 376.949 141.798 377.153 140.801 377.153ZM140.801 374.586C141.367 374.586 141.832 374.393 142.195 374.008C142.557 373.611 142.739 373.067 142.739 372.376C142.739 371.696 142.557 371.163 142.195 370.778C141.832 370.393 141.367 370.2 140.801 370.2C140.234 370.2 139.769 370.393 139.407 370.778C139.044 371.163 138.863 371.696 138.863 372.376C138.863 373.067 139.044 373.611 139.407 374.008C139.769 374.393 140.234 374.586 140.801 374.586ZM150.848 377.153C150.077 377.153 149.318 377.068 148.57 376.898C147.822 376.717 147.221 376.484 146.768 376.201L147.737 373.991C148.156 374.252 148.655 374.461 149.233 374.62C149.811 374.767 150.383 374.841 150.95 374.841C151.471 374.841 151.84 374.79 152.055 374.688C152.282 374.575 152.395 374.416 152.395 374.212C152.395 374.008 152.259 373.866 151.987 373.787C151.726 373.696 151.307 373.611 150.729 373.532C149.992 373.441 149.363 373.322 148.842 373.175C148.332 373.028 147.89 372.756 147.516 372.359C147.142 371.962 146.955 371.407 146.955 370.693C146.955 370.104 147.131 369.582 147.482 369.129C147.833 368.664 148.343 368.302 149.012 368.041C149.692 367.769 150.502 367.633 151.443 367.633C152.112 367.633 152.775 367.701 153.432 367.837C154.089 367.973 154.639 368.166 155.081 368.415L154.112 370.608C153.296 370.155 152.412 369.928 151.46 369.928C150.95 369.928 150.576 369.99 150.338 370.115C150.1 370.228 149.981 370.381 149.981 370.574C149.981 370.789 150.111 370.942 150.372 371.033C150.633 371.112 151.063 371.197 151.664 371.288C152.423 371.401 153.052 371.532 153.551 371.679C154.05 371.826 154.48 372.098 154.843 372.495C155.217 372.88 155.404 373.424 155.404 374.127C155.404 374.705 155.228 375.226 154.877 375.691C154.526 376.144 154.004 376.501 153.313 376.762C152.633 377.023 151.811 377.153 150.848 377.153Z" fill="#18191F"/>
<path d="M169.959 378.5C169.876 378.5 169.794 378.5 169.711 378.415H169.629C167.813 377.483 163.522 374.856 162.037 370.703C161.789 369.941 161.211 366.805 163.027 364.856C164.1 363.669 165.09 363.5 165.75 363.5C167.318 363.5 168.968 364.432 169.959 365.788C170.949 364.347 172.434 363.5 174.167 363.5C174.828 363.5 175.818 363.669 176.973 364.856C178.789 366.805 178.211 370.025 177.963 370.703C176.478 374.941 172.104 377.483 170.371 378.415C170.206 378.5 170.041 378.5 169.959 378.5Z" stroke="#18191F" stroke-width="2" stroke-linecap="round" stroke-linejoin="round"/>
</g>
<g filter="url(#filter4_d)">
<rect x="25" y="429" width="153" height="236" rx="15" fill="#FF89BB" stroke="#18191F" stroke-width="2"/>
<path d="M101.5 528.669C89.7424 528.669 87.3598 512.693 87.3598 512.693C85.9613 504.381 90.2086 495 101.345 495C112.532 495 116.78 504.381 115.381 512.693C115.381 512.693 113.258 528.669 101.5 528.669ZM101.5 540.604L115.588 532.152C127.968 532.152 139 542.972 139 553.189V564.752C139 564.752 120.095 570 101.5 570C82.5946 570 64 564.752 64 564.752V553.189C64 542.74 74.0483 532.384 87.1526 532.384L101.5 540.604Z" fill="#9D2235"/>
<path d="M82.7374 677.1H86.1034V686.331H91.7814V689H82.7374V677.1ZM92.9603 679.786H96.1903V689H92.9603V679.786ZM94.5753 678.766C93.986 678.766 93.51 678.602 93.1473 678.273C92.7847 677.944 92.6033 677.536 92.6033 677.049C92.6033 676.562 92.7847 676.154 93.1473 675.825C93.51 675.496 93.986 675.332 94.5753 675.332C95.1647 675.332 95.6407 675.491 96.0033 675.808C96.366 676.114 96.5473 676.511 96.5473 676.998C96.5473 677.508 96.366 677.933 96.0033 678.273C95.6407 678.602 95.1647 678.766 94.5753 678.766ZM107.996 679.786L104.188 689H100.856L97.0654 679.786H100.38L102.59 685.413L104.919 679.786H107.996ZM118 684.41C118 684.433 117.983 684.699 117.949 685.209H111.251C111.387 685.685 111.648 686.053 112.033 686.314C112.43 686.563 112.923 686.688 113.512 686.688C113.954 686.688 114.334 686.626 114.651 686.501C114.98 686.376 115.309 686.172 115.637 685.889L117.337 687.657C116.442 688.654 115.133 689.153 113.41 689.153C112.334 689.153 111.387 688.949 110.571 688.541C109.755 688.133 109.121 687.566 108.667 686.841C108.225 686.116 108.004 685.294 108.004 684.376C108.004 683.469 108.22 682.659 108.65 681.945C109.092 681.22 109.699 680.653 110.469 680.245C111.24 679.837 112.107 679.633 113.07 679.633C113.988 679.633 114.821 679.826 115.569 680.211C116.317 680.585 116.907 681.135 117.337 681.86C117.779 682.574 118 683.424 118 684.41ZM113.087 681.928C112.589 681.928 112.169 682.07 111.829 682.353C111.501 682.636 111.291 683.022 111.2 683.509H114.974C114.884 683.022 114.668 682.636 114.328 682.353C114 682.07 113.586 681.928 113.087 681.928ZM55.9922 701.1H59.3582V713H55.9922V701.1ZM67.601 703.633C68.7457 703.633 69.6637 703.973 70.355 704.653C71.0577 705.333 71.409 706.359 71.409 707.73V713H68.179V708.257C68.179 706.999 67.6747 706.37 66.666 706.37C66.1107 706.37 65.663 706.551 65.323 706.914C64.9943 707.277 64.83 707.821 64.83 708.546V713H61.6V703.786H64.677V704.789C65.0397 704.415 65.4703 704.132 65.969 703.939C66.4677 703.735 67.0117 703.633 67.601 703.633ZM76.7859 713.153C76.0152 713.153 75.2559 713.068 74.5079 712.898C73.7599 712.717 73.1592 712.484 72.7059 712.201L73.6749 709.991C74.0942 710.252 74.5929 710.461 75.1709 710.62C75.7489 710.767 76.3212 710.841 76.8879 710.841C77.4092 710.841 77.7776 710.79 77.9929 710.688C78.2196 710.575 78.3329 710.416 78.3329 710.212C78.3329 710.008 78.1969 709.866 77.9249 709.787C77.6642 709.696 77.2449 709.611 76.6669 709.532C75.9302 709.441 75.3012 709.322 74.7799 709.175C74.2699 709.028 73.8279 708.756 73.4539 708.359C73.0799 707.962 72.8929 707.407 72.8929 706.693C72.8929 706.104 73.0686 705.582 73.4199 705.129C73.7712 704.664 74.2812 704.302 74.9499 704.041C75.6299 703.769 76.4402 703.633 77.3809 703.633C78.0496 703.633 78.7126 703.701 79.3699 703.837C80.0272 703.973 80.5769 704.166 81.0189 704.415L80.0499 706.608C79.2339 706.155 78.3499 705.928 77.3979 705.928C76.8879 705.928 76.5139 705.99 76.2759 706.115C76.0379 706.228 75.9189 706.381 75.9189 706.574C75.9189 706.789 76.0492 706.942 76.3099 707.033C76.5706 707.112 77.0012 707.197 77.6019 707.288C78.3612 707.401 78.9902 707.532 79.4889 707.679C79.9876 707.826 80.4182 708.098 80.7809 708.495C81.1549 708.88 81.3419 709.424 81.3419 710.127C81.3419 710.705 81.1662 711.226 80.8149 711.691C80.4636 712.144 79.9422 712.501 79.2509 712.762C78.5709 713.023 77.7492 713.153 76.7859 713.153ZM89.0918 712.626C88.8198 712.796 88.4854 712.926 88.0888 713.017C87.7034 713.108 87.2898 713.153 86.8478 713.153C85.6464 713.153 84.7228 712.858 84.0768 712.269C83.4308 711.68 83.1078 710.801 83.1078 709.634V706.54H81.7648V704.126H83.1078V701.729H86.3378V704.126H88.4458V706.54H86.3378V709.6C86.3378 709.929 86.4228 710.189 86.5928 710.382C86.7741 710.563 87.0121 710.654 87.3068 710.654C87.6808 710.654 88.0094 710.558 88.2928 710.365L89.0918 712.626ZM93.4143 704.891C93.743 704.472 94.168 704.16 94.6893 703.956C95.222 703.741 95.8283 703.633 96.5083 703.633V706.54C96.2136 706.506 95.97 706.489 95.7773 706.489C95.086 706.489 94.542 706.676 94.1453 707.05C93.76 707.424 93.5673 707.996 93.5673 708.767V713H90.3373V703.786H93.4143V704.891ZM107.564 703.786V713H104.487V712.014C104.147 712.388 103.739 712.671 103.263 712.864C102.787 713.057 102.283 713.153 101.75 713.153C100.56 713.153 99.6084 712.802 98.8944 712.099C98.1917 711.396 97.8404 710.342 97.8404 708.937V703.786H101.07V708.41C101.07 709.101 101.201 709.606 101.461 709.923C101.722 710.24 102.102 710.399 102.6 710.399C103.11 710.399 103.524 710.223 103.841 709.872C104.17 709.509 104.334 708.96 104.334 708.223V703.786H107.564ZM114.354 713.153C113.334 713.153 112.422 712.949 111.617 712.541C110.812 712.133 110.183 711.566 109.73 710.841C109.288 710.116 109.067 709.294 109.067 708.376C109.067 707.458 109.288 706.642 109.73 705.928C110.183 705.203 110.812 704.642 111.617 704.245C112.422 703.837 113.334 703.633 114.354 703.633C115.397 703.633 116.298 703.86 117.057 704.313C117.816 704.755 118.355 705.373 118.672 706.166L116.173 707.441C115.754 706.614 115.142 706.2 114.337 706.2C113.759 706.2 113.277 706.393 112.892 706.778C112.518 707.163 112.331 707.696 112.331 708.376C112.331 709.067 112.518 709.611 112.892 710.008C113.277 710.393 113.759 710.586 114.337 710.586C115.142 710.586 115.754 710.172 116.173 709.345L118.672 710.62C118.355 711.413 117.816 712.037 117.057 712.49C116.298 712.932 115.397 713.153 114.354 713.153ZM126.395 712.626C126.123 712.796 125.789 712.926 125.392 713.017C125.007 713.108 124.593 713.153 124.151 713.153C122.95 713.153 122.026 712.858 121.38 712.269C120.734 711.68 120.411 710.801 120.411 709.634V706.54H119.068V704.126H120.411V701.729H123.641V704.126H125.749V706.54H123.641V709.6C123.641 709.929 123.726 710.189 123.896 710.382C124.078 710.563 124.316 710.654 124.61 710.654C124.984 710.654 125.313 710.558 125.596 710.365L126.395 712.626ZM131.999 713.153C131.013 713.153 130.124 712.949 129.33 712.541C128.537 712.133 127.914 711.566 127.46 710.841C127.018 710.116 126.797 709.294 126.797 708.376C126.797 707.469 127.018 706.653 127.46 705.928C127.914 705.203 128.531 704.642 129.313 704.245C130.107 703.837 131.002 703.633 131.999 703.633C132.997 703.633 133.892 703.837 134.685 704.245C135.479 704.642 136.096 705.203 136.538 705.928C136.98 706.642 137.201 707.458 137.201 708.376C137.201 709.294 136.98 710.116 136.538 710.841C136.096 711.566 135.479 712.133 134.685 712.541C133.892 712.949 132.997 713.153 131.999 713.153ZM131.999 710.586C132.566 710.586 133.031 710.393 133.393 710.008C133.756 709.611 133.937 709.067 133.937 708.376C133.937 707.696 133.756 707.163 133.393 706.778C133.031 706.393 132.566 706.2 131.999 706.2C131.433 706.2 130.968 706.393 130.605 706.778C130.243 707.163 130.061 707.696 130.061 708.376C130.061 709.067 130.243 709.611 130.605 710.008C130.968 710.393 131.433 710.586 131.999 710.586ZM141.775 704.891C142.103 704.472 142.528 704.16 143.05 703.956C143.582 703.741 144.189 703.633 144.869 703.633V706.54C144.574 706.506 144.33 706.489 144.138 706.489C143.446 706.489 142.902 706.676 142.506 707.05C142.12 707.424 141.928 707.996 141.928 708.767V713H138.698V703.786H141.775V704.891Z" fill="#18191F"/>
<path d="M165.959 687.5C165.876 687.5 165.794 687.5 165.711 687.415H165.629C163.813 686.483 159.522 683.856 158.037 679.703C157.789 678.941 157.211 675.805 159.027 673.856C160.1 672.669 161.09 672.5 161.75 672.5C163.318 672.5 164.968 673.432 165.959 674.788C166.949 673.347 168.434 672.5 170.167 672.5C170.828 672.5 171.818 672.669 172.973 673.856C174.789 675.805 174.211 679.025 173.963 679.703C172.478 683.941 168.104 686.483 166.371 687.415C166.206 687.5 166.041 687.5 165.959 687.5Z" stroke="#18191F" stroke-width="2" stroke-linecap="round" stroke-linejoin="round"/>
</g>
<g filter="url(#filter5_d)">
<rect x="217" y="360" width="153" height="218" rx="15" fill="#00C6AE" stroke="#18191F" stroke-width="2"/>
<path d="M305.09 445.953C310.272 445.953 314.512 442.814 314.512 438.977C314.512 435.14 310.272 432 305.09 432C299.907 432 295.668 435.14 295.668 438.977C295.668 442.814 299.907 445.953 305.09 445.953ZM290.156 487.814L292.841 479.093L302.734 486.07V503.512C302.734 505.43 304.854 507 307.445 507C310.036 507 312.156 505.43 312.156 503.512V483.837C312.156 481.919 311.12 480.105 309.235 478.779L302.263 473.86L305.09 463.395C310.398 467.889 317.666 470.864 325.629 471.802C328.456 472.116 331 470.442 331 468.314C331 466.605 329.304 465.174 326.996 464.895C319.835 464.023 313.899 460.884 310.743 456.767L306.032 451.186C304.147 449.093 301.321 447.698 298.023 447.698C296.61 447.698 295.668 448.047 294.254 448.047L275.505 453.907C273.798 454.447 272.343 455.347 271.321 456.494C270.299 457.642 269.755 458.986 269.757 460.36V468.628C269.757 470.547 271.877 472.116 274.468 472.116C277.059 472.116 279.179 470.547 279.179 468.628V460.256L287.659 457.814L280.121 486.07L261.654 483.279C259.11 482.895 256.613 484.116 256.095 486V486.14C255.577 488.023 257.226 489.872 259.77 490.256L279.132 493.116C281.54 493.47 284.04 493.114 286.099 492.124C288.158 491.133 289.613 489.587 290.156 487.814Z" fill="#9D2235"/>
<path d="M237.54 605.238C236.577 605.238 235.642 605.119 234.735 604.881C233.828 604.643 233.092 604.326 232.525 603.929L233.63 601.447C234.163 601.798 234.78 602.082 235.483 602.297C236.186 602.512 236.877 602.62 237.557 602.62C238.849 602.62 239.495 602.297 239.495 601.651C239.495 601.311 239.308 601.062 238.934 600.903C238.571 600.733 237.982 600.557 237.166 600.376C236.271 600.183 235.523 599.979 234.922 599.764C234.321 599.537 233.806 599.18 233.375 598.693C232.944 598.206 232.729 597.548 232.729 596.721C232.729 595.996 232.927 595.344 233.324 594.766C233.721 594.177 234.31 593.712 235.092 593.372C235.885 593.032 236.854 592.862 237.999 592.862C238.781 592.862 239.552 592.953 240.311 593.134C241.07 593.304 241.739 593.559 242.317 593.899L241.28 596.398C240.147 595.786 239.047 595.48 237.982 595.48C237.313 595.48 236.826 595.582 236.52 595.786C236.214 595.979 236.061 596.234 236.061 596.551C236.061 596.868 236.242 597.106 236.605 597.265C236.968 597.424 237.551 597.588 238.356 597.758C239.263 597.951 240.011 598.16 240.6 598.387C241.201 598.602 241.716 598.954 242.147 599.441C242.589 599.917 242.81 600.569 242.81 601.396C242.81 602.11 242.612 602.756 242.215 603.334C241.818 603.912 241.223 604.377 240.43 604.728C239.637 605.068 238.673 605.238 237.54 605.238ZM248.836 605.153C247.85 605.153 246.96 604.949 246.167 604.541C245.373 604.133 244.75 603.566 244.297 602.841C243.855 602.116 243.634 601.294 243.634 600.376C243.634 599.469 243.855 598.653 244.297 597.928C244.75 597.203 245.368 596.642 246.15 596.245C246.943 595.837 247.838 595.633 248.836 595.633C249.833 595.633 250.728 595.837 251.522 596.245C252.315 596.642 252.933 597.203 253.375 597.928C253.817 598.642 254.038 599.458 254.038 600.376C254.038 601.294 253.817 602.116 253.375 602.841C252.933 603.566 252.315 604.133 251.522 604.541C250.728 604.949 249.833 605.153 248.836 605.153ZM248.836 602.586C249.402 602.586 249.867 602.393 250.23 602.008C250.592 601.611 250.774 601.067 250.774 600.376C250.774 599.696 250.592 599.163 250.23 598.778C249.867 598.393 249.402 598.2 248.836 598.2C248.269 598.2 247.804 598.393 247.442 598.778C247.079 599.163 246.898 599.696 246.898 600.376C246.898 601.067 247.079 601.611 247.442 602.008C247.804 602.393 248.269 602.586 248.836 602.586ZM255.534 592.386H258.764V605H255.534V592.386ZM265.487 605.153C264.501 605.153 263.612 604.949 262.818 604.541C262.025 604.133 261.402 603.566 260.948 602.841C260.506 602.116 260.285 601.294 260.285 600.376C260.285 599.469 260.506 598.653 260.948 597.928C261.402 597.203 262.019 596.642 262.801 596.245C263.595 595.837 264.49 595.633 265.487 595.633C266.485 595.633 267.38 595.837 268.173 596.245C268.967 596.642 269.584 597.203 270.026 597.928C270.468 598.642 270.689 599.458 270.689 600.376C270.689 601.294 270.468 602.116 270.026 602.841C269.584 603.566 268.967 604.133 268.173 604.541C267.38 604.949 266.485 605.153 265.487 605.153ZM265.487 602.586C266.054 602.586 266.519 602.393 266.881 602.008C267.244 601.611 267.425 601.067 267.425 600.376C267.425 599.696 267.244 599.163 266.881 598.778C266.519 598.393 266.054 598.2 265.487 598.2C264.921 598.2 264.456 598.393 264.093 598.778C263.731 599.163 263.549 599.696 263.549 600.376C263.549 601.067 263.731 601.611 264.093 602.008C264.456 602.393 264.921 602.586 265.487 602.586ZM286.84 602.399V605H277.286V593.1H286.619V595.701H280.618V597.707H285.905V600.223H280.618V602.399H286.84ZM294.353 605L292.704 602.586L290.936 605H287.434L290.936 600.393L287.536 595.786H291.174L292.806 598.115L294.506 595.786H297.923L294.523 600.274L298.042 605H294.353ZM308.183 600.41C308.183 600.433 308.166 600.699 308.132 601.209H301.434C301.57 601.685 301.83 602.053 302.216 602.314C302.612 602.563 303.105 602.688 303.695 602.688C304.137 602.688 304.516 602.626 304.834 602.501C305.162 602.376 305.491 602.172 305.82 601.889L307.52 603.657C306.624 604.654 305.315 605.153 303.593 605.153C302.516 605.153 301.57 604.949 300.754 604.541C299.938 604.133 299.303 603.566 298.85 602.841C298.408 602.116 298.187 601.294 298.187 600.376C298.187 599.469 298.402 598.659 298.833 597.945C299.275 597.22 299.881 596.653 300.652 596.245C301.422 595.837 302.289 595.633 303.253 595.633C304.171 595.633 305.004 595.826 305.752 596.211C306.5 596.585 307.089 597.135 307.52 597.86C307.962 598.574 308.183 599.424 308.183 600.41ZM303.27 597.928C302.771 597.928 302.352 598.07 302.012 598.353C301.683 598.636 301.473 599.022 301.383 599.509H305.157C305.066 599.022 304.851 598.636 304.511 598.353C304.182 598.07 303.768 597.928 303.27 597.928ZM312.749 596.891C313.077 596.472 313.502 596.16 314.024 595.956C314.556 595.741 315.163 595.633 315.843 595.633V598.54C315.548 598.506 315.304 598.489 315.112 598.489C314.42 598.489 313.876 598.676 313.48 599.05C313.094 599.424 312.902 599.996 312.902 600.767V605H309.672V595.786H312.749V596.891ZM321.802 605.153C320.782 605.153 319.869 604.949 319.065 604.541C318.26 604.133 317.631 603.566 317.178 602.841C316.736 602.116 316.515 601.294 316.515 600.376C316.515 599.458 316.736 598.642 317.178 597.928C317.631 597.203 318.26 596.642 319.065 596.245C319.869 595.837 320.782 595.633 321.802 595.633C322.844 595.633 323.745 595.86 324.505 596.313C325.264 596.755 325.802 597.373 326.12 598.166L323.621 599.441C323.201 598.614 322.589 598.2 321.785 598.2C321.207 598.2 320.725 598.393 320.34 598.778C319.966 599.163 319.779 599.696 319.779 600.376C319.779 601.067 319.966 601.611 320.34 602.008C320.725 602.393 321.207 602.586 321.785 602.586C322.589 602.586 323.201 602.172 323.621 601.345L326.12 602.62C325.802 603.413 325.264 604.037 324.505 604.49C323.745 604.932 322.844 605.153 321.802 605.153ZM327.336 595.786H330.566V605H327.336V595.786ZM328.951 594.766C328.361 594.766 327.885 594.602 327.523 594.273C327.16 593.944 326.979 593.536 326.979 593.049C326.979 592.562 327.16 592.154 327.523 591.825C327.885 591.496 328.361 591.332 328.951 591.332C329.54 591.332 330.016 591.491 330.379 591.808C330.741 592.114 330.923 592.511 330.923 592.998C330.923 593.508 330.741 593.933 330.379 594.273C330.016 594.602 329.54 594.766 328.951 594.766ZM336.014 605.153C335.243 605.153 334.484 605.068 333.736 604.898C332.988 604.717 332.387 604.484 331.934 604.201L332.903 601.991C333.322 602.252 333.821 602.461 334.399 602.62C334.977 602.767 335.549 602.841 336.116 602.841C336.637 602.841 337.006 602.79 337.221 602.688C337.448 602.575 337.561 602.416 337.561 602.212C337.561 602.008 337.425 601.866 337.153 601.787C336.892 601.696 336.473 601.611 335.895 601.532C335.158 601.441 334.529 601.322 334.008 601.175C333.498 601.028 333.056 600.756 332.682 600.359C332.308 599.962 332.121 599.407 332.121 598.693C332.121 598.104 332.297 597.582 332.648 597.129C332.999 596.664 333.509 596.302 334.178 596.041C334.858 595.769 335.668 595.633 336.609 595.633C337.278 595.633 337.941 595.701 338.598 595.837C339.255 595.973 339.805 596.166 340.247 596.415L339.278 598.608C338.462 598.155 337.578 597.928 336.626 597.928C336.116 597.928 335.742 597.99 335.504 598.115C335.266 598.228 335.147 598.381 335.147 598.574C335.147 598.789 335.277 598.942 335.538 599.033C335.799 599.112 336.229 599.197 336.83 599.288C337.589 599.401 338.218 599.532 338.717 599.679C339.216 599.826 339.646 600.098 340.009 600.495C340.383 600.88 340.57 601.424 340.57 602.127C340.57 602.705 340.394 603.226 340.043 603.691C339.692 604.144 339.17 604.501 338.479 604.762C337.799 605.023 336.977 605.153 336.014 605.153ZM351.38 600.41C351.38 600.433 351.363 600.699 351.329 601.209H344.631C344.767 601.685 345.027 602.053 345.413 602.314C345.809 602.563 346.302 602.688 346.892 602.688C347.334 602.688 347.713 602.626 348.031 602.501C348.359 602.376 348.688 602.172 349.017 601.889L350.717 603.657C349.821 604.654 348.512 605.153 346.79 605.153C345.713 605.153 344.767 604.949 343.951 604.541C343.135 604.133 342.5 603.566 342.047 602.841C341.605 602.116 341.384 601.294 341.384 600.376C341.384 599.469 341.599 598.659 342.03 597.945C342.472 597.22 343.078 596.653 343.849 596.245C344.619 595.837 345.486 595.633 346.45 595.633C347.368 595.633 348.201 595.826 348.949 596.211C349.697 596.585 350.286 597.135 350.717 597.86C351.159 598.574 351.38 599.424 351.38 600.41ZM346.467 597.928C345.968 597.928 345.549 598.07 345.209 598.353C344.88 598.636 344.67 599.022 344.58 599.509H348.354C348.263 599.022 348.048 598.636 347.708 598.353C347.379 598.07 346.965 597.928 346.467 597.928Z" fill="#18191F"/>
<path d="M361.959 606.5C361.876 606.5 361.794 606.5 361.711 606.415H361.629C359.813 605.483 355.522 602.856 354.037 598.703C353.789 597.941 353.211 594.805 355.027 592.856C356.1 591.669 357.09 591.5 357.75 591.5C359.318 591.5 360.968 592.432 361.959 593.788C362.949 592.347 364.434 591.5 366.167 591.5C366.828 591.5 367.818 591.669 368.973 592.856C370.789 594.805 370.211 598.025 369.963 598.703C368.478 602.941 364.104 605.483 362.371 606.415C362.206 606.5 362.041 606.5 361.959 606.5Z" stroke="#18191F" stroke-width="2" stroke-linecap="round" stroke-linejoin="round"/>
</g>
<g filter="url(#filter6_d)">
<path d="M0 825C0 811.193 11.1929 800 25 800H389C402.807 800 414 811.193 414 825V896H0V825Z" fill="white"/>
</g>
<path fill-rule="evenodd" clip-rule="evenodd" d="M363.092 826.722C362.643 824.424 359.357 824.424 358.908 826.722C358.636 828.12 357.095 828.862 355.832 828.203C353.756 827.121 351.707 829.691 353.223 831.474C354.146 832.559 353.766 834.226 352.464 834.803C350.324 835.751 351.055 838.956 353.394 838.882C354.818 838.836 355.884 840.174 355.524 841.551C354.931 843.816 357.892 845.242 359.293 843.366C360.145 842.225 361.855 842.225 362.707 843.366C364.108 845.242 367.069 843.816 366.476 841.551C366.116 840.174 367.182 838.836 368.606 838.882C370.945 838.956 371.677 835.751 369.536 834.803C368.234 834.226 367.854 832.559 368.777 831.474C370.293 829.691 368.244 827.121 366.168 828.203C364.905 828.862 363.364 828.12 363.092 826.722ZM361 838C362.657 838 364 836.657 364 835C364 833.343 362.657 832 361 832C359.343 832 358 833.343 358 835C358 836.657 359.343 838 361 838Z" fill="#9D2235"/>
<path fill-rule="evenodd" clip-rule="evenodd" d="M283.167 825C279.555 825 276.628 827.955 276.628 831.6V834.429C276.628 835.449 276.3 836.441 275.694 837.257L274.309 839.121C273.779 839.834 273.934 840.81 274.745 841.163C276.204 841.799 278.891 842.6 283.167 842.6C287.442 842.6 290.129 841.799 291.588 841.163C292.399 840.81 292.554 839.834 292.024 839.121L290.639 837.257C290.033 836.441 289.705 835.449 289.705 834.429V831.6C289.705 827.955 286.778 825 283.167 825ZM283.167 846.45C281.809 846.45 280.683 845.447 280.476 844.136C281.293 844.208 282.188 844.25 283.167 844.25C284.145 844.25 285.041 844.208 285.857 844.136C285.65 845.447 284.524 846.45 283.167 846.45Z" fill="#9D2235"/>
<path d="M216.104 841.943V836.434C216.104 834.632 216.104 833.731 215.695 832.934C215.286 832.138 214.516 831.539 212.975 830.342L211.81 829.436C208.862 827.145 207.388 826 205.616 826C203.844 826 202.37 827.145 199.422 829.436L198.257 830.342C196.717 831.539 195.946 832.138 195.537 832.934C195.128 833.731 195.128 834.632 195.128 836.434V841.943C195.128 842.893 195.128 843.368 195.306 843.742C195.542 844.241 195.996 844.638 196.567 844.845C196.995 845 197.538 845 198.624 845H199.013C199.735 845 200.096 845 200.393 844.931C201.197 844.742 201.825 844.193 202.041 843.49C202.12 843.231 202.12 842.915 202.12 842.283V839.906C202.12 838.218 203.685 836.849 205.616 836.849C207.547 836.849 209.112 838.218 209.112 839.906V842.283C209.112 842.915 209.112 843.231 209.191 843.49C209.407 844.193 210.035 844.742 210.84 844.931C211.136 845 211.497 845 212.22 845H212.608C213.694 845 214.237 845 214.665 844.845C215.236 844.638 215.69 844.241 215.927 843.742C216.104 843.368 216.104 842.893 216.104 841.943Z" fill="#9D2235"/>
<path d="M66.3303 834.812C66.6986 834.812 67 834.549 67 834.227V832.273C67 831.951 66.6986 831.688 66.3303 831.688H65.2143V829.344C65.2143 828.05 64.0145 827 62.5357 827H44.6785C43.1997 827 42 828.05 42 829.344V849.656C42 850.95 43.1997 852 44.6785 852H62.5357C64.0145 852 65.2143 850.95 65.2143 849.656V847.312H66.3303C66.6986 847.312 67 847.049 67 846.727V844.773C67 844.451 66.6986 844.188 66.3303 844.188H65.2143V841.062H66.3303C66.6986 841.062 67 840.799 67 840.477V838.523C67 838.201 66.6986 837.938 66.3303 837.938H65.2143V834.812H66.3303ZM62.5357 849.656H44.6785V829.344H62.5357V849.656ZM53.6071 839.5C55.577 839.5 57.1785 838.099 57.1785 836.375C57.1785 834.651 55.577 833.25 53.6071 833.25C51.6372 833.25 50.0357 834.651 50.0357 836.375C50.0357 838.099 51.6372 839.5 53.6071 839.5ZM48.6071 845.75H58.6071C59.2991 845.75 59.8571 845.33 59.8571 844.812V843.875C59.8571 842.322 58.1774 841.062 56.1071 841.062C55.5044 841.062 55.0636 841.453 53.6071 841.453C52.106 841.453 51.7433 841.062 51.1071 841.062C49.0368 841.062 47.3571 842.322 47.3571 843.875V844.812C47.3571 845.33 47.9151 845.75 48.6071 845.75Z" fill="#9D2235"/>
<path d="M131.344 836.396L132.833 834.906L131.344 833.417L127.625 837.135L118.698 828.208L122.417 824.49L120.927 823L119.438 824.49L117.948 823L115.719 825.229L114.229 823.74L112.74 825.229L114.229 826.719L112 828.948L113.49 830.438L112 831.927L113.49 833.417L117.208 829.698L126.135 838.625L122.417 842.344L123.906 843.833L125.396 842.344L126.885 843.833L129.115 841.604L130.604 843.094L132.094 841.604L130.604 840.115L132.833 837.885L131.344 836.396Z" fill="#9D2235"/>
<rect x="140" y="883" width="134" height="5" rx="2.5" fill="black"/>
</g>
<defs>
<filter id="filter0_bd" x="-20" y="-20" width="454" height="150" filterUnits="userSpaceOnUse" color-interpolation-filters="sRGB">
<feFlood flood-opacity="0" result="BackgroundImageFix"/>
<feGaussianBlur in="BackgroundImage" stdDeviation="10"/>
<feComposite in2="SourceAlpha" operator="in" result="effect1_backgroundBlur"/>
<feColorMatrix in="SourceAlpha" type="matrix" values="0 0 0 0 0 0 0 0 0 0 0 0 0 0 0 0 0 0 127 0"/>
<feOffset dy="0.5"/>
<feColorMatrix type="matrix" values="0 0 0 0 0 0 0 0 0 0 0 0 0 0 0 0 0 0 0.3 0"/>
<feBlend mode="normal" in2="effect1_backgroundBlur" result="effect2_dropShadow"/>
<feBlend mode="normal" in="SourceGraphic" in2="effect2_dropShadow" result="shape"/>
</filter>
<filter id="filter1_d" x="120.091" y="70.3921" width="173.043" height="36.254" filterUnits="userSpaceOnUse" color-interpolation-filters="sRGB">
<feFlood flood-opacity="0" result="BackgroundImageFix"/>
<feColorMatrix in="SourceAlpha" type="matrix" values="0 0 0 0 0 0 0 0 0 0 0 0 0 0 0 0 0 0 127 0"/>
<feOffset dy="4"/>
<feGaussianBlur stdDeviation="2"/>
<feColorMatrix type="matrix" values="0 0 0 0 0 0 0 0 0 0 0 0 0 0 0 0 0 0 0.25 0"/>
<feBlend mode="normal" in2="BackgroundImageFix" result="effect1_dropShadow"/>
<feBlend mode="normal" in="SourceGraphic" in2="effect1_dropShadow" result="shape"/>
</filter>
<filter id="filter2_d" x="212" y="178" width="163" height="189" filterUnits="userSpaceOnUse" color-interpolation-filters="sRGB">
<feFlood flood-opacity="0" result="BackgroundImageFix"/>
<feColorMatrix in="SourceAlpha" type="matrix" values="0 0 0 0 0 0 0 0 0 0 0 0 0 0 0 0 0 0 127 0"/>
<feOffset dy="4"/>
<feGaussianBlur stdDeviation="2"/>
<feColorMatrix type="matrix" values="0 0 0 0 0 0 0 0 0 0 0 0 0 0 0 0 0 0 0.25 0"/>
<feBlend mode="normal" in2="BackgroundImageFix" result="effect1_dropShadow"/>
<feBlend mode="normal" in="SourceGraphic" in2="effect1_dropShadow" result="shape"/>
</filter>
<filter id="filter3_d" x="20" y="151" width="163.25" height="237" filterUnits="userSpaceOnUse" color-interpolation-filters="sRGB">
<feFlood flood-opacity="0" result="BackgroundImageFix"/>
<feColorMatrix in="SourceAlpha" type="matrix" values="0 0 0 0 0 0 0 0 0 0 0 0 0 0 0 0 0 0 127 0"/>
<feOffset dy="4"/>
<feGaussianBlur stdDeviation="2"/>
<feColorMatrix type="matrix" values="0 0 0 0 0 0 0 0 0 0 0 0 0 0 0 0 0 0 0.25 0"/>
<feBlend mode="normal" in2="BackgroundImageFix" result="effect1_dropShadow"/>
<feBlend mode="normal" in="SourceGraphic" in2="effect1_dropShadow" result="shape"/>
</filter>
<filter id="filter4_d" x="20" y="428" width="163" height="296" filterUnits="userSpaceOnUse" color-interpolation-filters="sRGB">
<feFlood flood-opacity="0" result="BackgroundImageFix"/>
<feColorMatrix in="SourceAlpha" type="matrix" values="0 0 0 0 0 0 0 0 0 0 0 0 0 0 0 0 0 0 127 0"/>
<feOffset dy="4"/>
<feGaussianBlur stdDeviation="2"/>
<feColorMatrix type="matrix" values="0 0 0 0 0 0 0 0 0 0 0 0 0 0 0 0 0 0 0.25 0"/>
<feBlend mode="normal" in2="BackgroundImageFix" result="effect1_dropShadow"/>
<feBlend mode="normal" in="SourceGraphic" in2="effect1_dropShadow" result="shape"/>
</filter>
<filter id="filter5_d" x="212" y="359" width="163.25" height="278" filterUnits="userSpaceOnUse" color-interpolation-filters="sRGB">
<feFlood flood-opacity="0" result="BackgroundImageFix"/>
<feColorMatrix in="SourceAlpha" type="matrix" values="0 0 0 0 0 0 0 0 0 0 0 0 0 0 0 0 0 0 127 0"/>
<feOffset dy="4"/>
<feGaussianBlur stdDeviation="2"/>
<feColorMatrix type="matrix" values="0 0 0 0 0 0 0 0 0 0 0 0 0 0 0 0 0 0 0.25 0"/>
<feBlend mode="normal" in2="BackgroundImageFix" result="effect1_dropShadow"/>
<feBlend mode="normal" in="SourceGraphic" in2="effect1_dropShadow" result="shape"/>
</filter>
<filter id="filter6_d" x="-14" y="787" width="442" height="124" filterUnits="userSpaceOnUse" color-interpolation-filters="sRGB">
<feFlood flood-opacity="0" result="BackgroundImageFix"/>
<feColorMatrix in="SourceAlpha" type="matrix" values="0 0 0 0 0 0 0 0 0 0 0 0 0 0 0 0 0 0 127 0"/>
<feOffset dy="1"/>
<feGaussianBlur stdDeviation="7"/>
<feColorMatrix type="matrix" values="0 0 0 0 0.0980392 0 0 0 0 0.156863 0 0 0 0 0.184314 0 0 0 1 0"/>
<feBlend mode="normal" in2="BackgroundImageFix" result="effect1_dropShadow"/>
<feBlend mode="normal" in="SourceGraphic" in2="effect1_dropShadow" result="shape"/>
</filter>
<linearGradient id="paint0_linear" x1="207" y1="896" x2="207" y2="-6.39848e-05" gradientUnits="userSpaceOnUse">
<stop stop-color="#9D2235"/>
<stop offset="0.630208" stop-color="white" stop-opacity="0"/>
</linearGradient>
<clipPath id="clip0">
<rect width="414" height="896" fill="white"/>
</clipPath>
<clipPath id="clip1">
<rect width="375" height="44" fill="white" transform="translate(20)"/>
</clipPath>
</defs>
</svg>
